<svg version="1.1" viewBox="0.0 0.0 353.6902887139108 385.1076115485564" fill="none" stroke="none" stroke-linecap="square" stroke-miterlimit="10" xmlns:xlink="http://www.w3.org/1999/xlink" xmlns="http://www.w3.org/2000/svg"><clipPath id="p.0"><path d="m0 0l353.69028 0l0 385.1076l-353.69028 0l0 -385.1076z" clip-rule="nonzero"/></clipPath><g clip-path="url(#p.0)"><path fill="#000000" fill-opacity="0.0" d="m0 0l353.69028 0l0 385.1076l-353.69028 0z" fill-rule="evenodd"/><path fill="#cfe2f3" d="m2.9317586 335.4567l347.811 0l0 47.3071l-347.811 0z" fill-rule="evenodd"/><path stroke="#000000" stroke-width="1.0" stroke-linejoin="round" stroke-linecap="butt" d="m2.9317586 335.4567l347.811 0l0 47.3071l-347.811 0z" fill-rule="evenodd"/><path fill="#000000" d="m146.84973 361.34274l1.765625 0.453125q-0.5625 2.171875 -2.0 3.328125q-1.4375 1.140625 -3.53125 1.140625q-2.15625 0 -3.515625 -0.875q-1.34375 -0.890625 -2.0625 -2.546875q-0.703125 -1.671875 -0.703125 -3.59375q0 -2.078125 0.796875 -3.625q0.796875 -1.5625 2.265625 -2.359375q1.484375 -0.8125 3.25 -0.8125q2.0 0 3.359375 1.015625q1.375 1.015625 1.90625 2.875l-1.734375 0.40625q-0.46875 -1.453125 -1.359375 -2.109375q-0.875 -0.671875 -2.203125 -0.671875q-1.546875 0 -2.578125 0.734375q-1.03125 0.734375 -1.453125 1.984375q-0.421875 1.234375 -0.421875 2.5625q0 1.703125 0.5 2.96875q0.5 1.265625 1.546875 1.90625q1.046875 0.625 2.265625 0.625q1.484375 0 2.515625 -0.859375q1.03125 -0.859375 1.390625 -2.546875zm3.1291962 -0.15625q0 -2.6875 1.484375 -3.96875q1.25 -1.078125 3.046875 -1.078125q2.0 0 3.265625 1.3125q1.265625 1.296875 1.265625 3.609375q0 1.859375 -0.5625 2.9375q-0.5625 1.0625 -1.640625 1.65625q-1.0625 0.59375 -2.328125 0.59375q-2.03125 0 -3.28125 -1.296875q-1.25 -1.3125 -1.25 -3.765625zm1.6875 0q0 1.859375 0.796875 2.796875q0.8125 0.921875 2.046875 0.921875q1.21875 0 2.03125 -0.921875q0.8125 -0.9375 0.8125 -2.84375q0 -1.796875 -0.8125 -2.71875q-0.8125 -0.921875 -2.03125 -0.921875q-1.234375 0 -2.046875 0.921875q-0.796875 0.90625 -0.796875 2.765625zm9.297592 4.84375l0 -9.671875l1.46875 0l0 1.359375q0.453125 -0.71875 1.203125 -1.140625q0.765625 -0.4375 1.71875 -0.4375q1.078125 0 1.765625 0.453125q0.6875 0.4375 0.96875 1.234375q1.15625 -1.6875 2.984375 -1.6875q1.453125 0 2.21875 0.796875q0.78125 0.796875 0.78125 2.453125l0 6.640625l-1.640625 0l0 -6.09375q0 -0.984375 -0.15625 -1.40625q-0.15625 -0.4375 -0.578125 -0.703125q-0.421875 -0.265625 -0.984375 -0.265625q-1.015625 0 -1.6875 0.6875q-0.671875 0.671875 -0.671875 2.15625l0 5.625l-1.640625 0l0 -6.28125q0 -1.09375 -0.40625 -1.640625q-0.40625 -0.546875 -1.3125 -0.546875q-0.6875 0 -1.28125 0.359375q-0.59375 0.359375 -0.859375 1.0625q-0.25 0.703125 -0.25 2.03125l0 5.015625l-1.640625 0zm15.540802 3.703125l0 -13.375l1.484375 0l0 1.25q0.53125 -0.734375 1.1875 -1.09375q0.671875 -0.375 1.625 -0.375q1.234375 0 2.171875 0.640625q0.953125 0.625 1.4375 1.796875q0.484375 1.15625 0.484375 2.546875q0 1.484375 -0.53125 2.671875q-0.53125 1.1875 -1.546875 1.828125q-1.015625 0.625 -2.140625 0.625q-0.8125 0 -1.46875 -0.34375q-0.65625 -0.34375 -1.0625 -0.875l0 4.703125l-1.640625 0zm1.484375 -8.484375q0 1.859375 0.75 2.765625q0.765625 0.890625 1.828125 0.890625q1.09375 0 1.875 -0.921875q0.78125 -0.9375 0.78125 -2.875q0 -1.84375 -0.765625 -2.765625q-0.75 -0.921875 -1.8125 -0.921875q-1.046875 0 -1.859375 0.984375q-0.796875 0.96875 -0.796875 2.84375zm15.219467 4.78125l0 -1.421875q-1.125 1.640625 -3.0625 1.640625q-0.859375 0 -1.609375 -0.328125q-0.734375 -0.328125 -1.09375 -0.828125q-0.359375 -0.5 -0.5 -1.21875q-0.109375 -0.46875 -0.109375 -1.53125l0 -5.984375l1.640625 0l0 5.359375q0 1.28125 0.109375 1.734375q0.15625 0.640625 0.65625 1.015625q0.5 0.375 1.234375 0.375q0.734375 0 1.375 -0.375q0.65625 -0.390625 0.921875 -1.03125q0.265625 -0.65625 0.265625 -1.890625l0 -5.1875l1.640625 0l0 9.671875l-1.46875 0zm7.625717 -1.46875l0.234375 1.453125q-0.6875 0.140625 -1.234375 0.140625q-0.890625 0 -1.390625 -0.28125q-0.484375 -0.28125 -0.6875 -0.734375q-0.203125 -0.46875 -0.203125 -1.9375l0 -5.578125l-1.203125 0l0 -1.265625l1.203125 0l0 -2.390625l1.625 -0.984375l0 3.375l1.65625 0l0 1.265625l-1.65625 0l0 5.671875q0 0.6875 0.078125 0.890625q0.09375 0.203125 0.28125 0.328125q0.203125 0.109375 0.578125 0.109375q0.265625 0 0.71875 -0.0625zm8.230179 -1.640625l1.6875 0.203125q-0.40625 1.484375 -1.484375 2.3125q-1.078125 0.8125 -2.765625 0.8125q-2.125 0 -3.375 -1.296875q-1.234375 -1.3125 -1.234375 -3.671875q0 -2.453125 1.25 -3.796875q1.265625 -1.34375 3.265625 -1.34375q1.9375 0 3.15625 1.328125q1.234375 1.3125 1.234375 3.703125q0 0.15625 0 0.4375l-7.21875 0q0.09375 1.59375 0.90625 2.453125q0.8125 0.84375 2.015625 0.84375q0.90625 0 1.546875 -0.46875q0.640625 -0.484375 1.015625 -1.515625zm-5.390625 -2.65625l5.40625 0q-0.109375 -1.21875 -0.625 -1.828125q-0.78125 -0.953125 -2.03125 -0.953125q-1.125 0 -1.90625 0.765625q-0.765625 0.75 -0.84375 2.015625zm9.125717 5.765625l0 -9.671875l1.46875 0l0 1.46875q0.5625 -1.03125 1.03125 -1.359375q0.484375 -0.328125 1.0625 -0.328125q0.828125 0 1.6875 0.53125l-0.5625 1.515625q-0.609375 -0.359375 -1.203125 -0.359375q-0.546875 0 -0.96875 0.328125q-0.421875 0.328125 -0.609375 0.890625q-0.28125 0.875 -0.28125 1.921875l0 5.0625l-1.625 0z" fill-rule="nonzero"/><path fill="#9fc5e8" d="m2.9317586 288.1496l347.811 0l0 47.3071l-347.811 0z" fill-rule="evenodd"/><path stroke="#000000" stroke-width="1.0" stroke-linejoin="round" stroke-linecap="butt" d="m2.9317586 288.1496l347.811 0l0 47.3071l-347.811 0z" fill-rule="evenodd"/><path fill="#000000" d="m89.60914 312.22314q0 -3.328125 1.78125 -5.203125q1.78125 -1.890625 4.609375 -1.890625q1.84375 0 3.328125 0.890625q1.484375 0.875 2.265625 2.46875q0.78125 1.578125 0.78125 3.578125q0 2.03125 -0.828125 3.640625q-0.8125 1.59375 -2.3125 2.421875q-1.5 0.828125 -3.25 0.828125q-1.875 0 -3.359375 -0.90625q-1.484375 -0.921875 -2.25 -2.5q-0.765625 -1.578125 -0.765625 -3.328125zm1.8125 0.015625q0 2.421875 1.296875 3.8125q1.296875 1.390625 3.265625 1.390625q2.0 0 3.28125 -1.40625q1.28125 -1.40625 1.28125 -3.984375q0 -1.625 -0.546875 -2.84375q-0.546875 -1.21875 -1.609375 -1.875q-1.0625 -0.671875 -2.375 -0.671875q-1.890625 0 -3.25 1.296875q-1.34375 1.28125 -1.34375 4.28125zm12.636429 2.1875l1.65625 -0.140625q0.125 1.0 0.546875 1.640625q0.4375 0.640625 1.34375 1.046875q0.921875 0.390625 2.0625 0.390625q1.0 0 1.78125 -0.296875q0.78125 -0.296875 1.15625 -0.8125q0.375 -0.53125 0.375 -1.15625q0 -0.625 -0.375 -1.09375q-0.359375 -0.46875 -1.1875 -0.796875q-0.546875 -0.203125 -2.390625 -0.640625q-1.828125 -0.453125 -2.5625 -0.84375q-0.96875 -0.5 -1.4375 -1.234375q-0.46875 -0.75 -0.46875 -1.671875q0 -1.0 0.578125 -1.875q0.578125 -0.890625 1.671875 -1.34375q1.109375 -0.453125 2.453125 -0.453125q1.484375 0 2.609375 0.484375q1.140625 0.46875 1.75 1.40625q0.609375 0.921875 0.65625 2.09375l-1.6875 0.125q-0.140625 -1.265625 -0.9375 -1.90625q-0.78125 -0.65625 -2.3125 -0.65625q-1.609375 0 -2.34375 0.59375q-0.734375 0.59375 -0.734375 1.421875q0 0.71875 0.53125 1.171875q0.5 0.46875 2.65625 0.96875q2.15625 0.484375 2.953125 0.84375q1.171875 0.53125 1.71875 1.359375q0.5625 0.828125 0.5625 1.90625q0 1.0625 -0.609375 2.015625q-0.609375 0.9375 -1.75 1.46875q-1.140625 0.515625 -2.578125 0.515625q-1.8125 0 -3.046875 -0.53125q-1.21875 -0.53125 -1.921875 -1.59375q-0.6875 -1.0625 -0.71875 -2.40625zm24.33001 3.109375q-0.9218826 0.765625 -1.7656326 1.09375q-0.828125 0.3125 -1.796875 0.3125q-1.59375 0 -2.453125 -0.78125q-0.859375 -0.78125 -0.859375 -1.984375q0 -0.71875 0.328125 -1.296875q0.328125 -0.59375 0.84375 -0.9375q0.53125 -0.359375 1.1875 -0.546875q0.46875 -0.125 1.453125 -0.25q1.984375 -0.234375 2.9218826 -0.5625q0.015625 -0.34375 0.015625 -0.421875q0 -1.0 -0.46875763 -1.421875q-0.625 -0.546875 -1.875 -0.546875q-1.15625 0 -1.703125 0.40625q-0.546875 0.40625 -0.8125 1.421875l-1.609375 -0.21875q0.21875 -1.015625 0.71875 -1.640625q0.5 -0.640625 1.453125 -0.984375q0.953125 -0.34375 2.1875 -0.34375q1.25 0 2.0156326 0.296875q0.78125 0.28125 1.140625 0.734375q0.375 0.4375 0.515625 1.109375q0.078125 0.421875 0.078125 1.515625l0 2.1875q0 2.28125 0.109375 2.890625q0.109375 0.59375 0.40625 1.15625l-1.703125 0q-0.265625 -0.515625 -0.328125 -1.1875zm-0.140625 -3.671875q-0.8906326 0.375 -2.6718826 0.625q-1.015625 0.140625 -1.4375 0.328125q-0.421875 0.1875 -0.65625 0.53125q-0.21875 0.34375 -0.21875 0.78125q0 0.65625 0.5 1.09375q0.5 0.4375 1.453125 0.4375q0.9375 0 1.671875 -0.40625q0.75 -0.421875 1.09375 -1.140625q0.26563263 -0.5625 0.26563263 -1.640625l0 -0.609375zm4.203842 4.859375l0 -9.671875l1.46875 0l0 1.375q1.0625 -1.59375 3.078125 -1.59375q0.875 0 1.609375 0.3125q0.734375 0.3125 1.09375 0.828125q0.375 0.5 0.515625 1.203125q0.09375 0.453125 0.09375 1.59375l0 5.953125l-1.640625 0l0 -5.890625q0 -1.0 -0.203125 -1.484375q-0.1875 -0.5 -0.671875 -0.796875q-0.484375 -0.296875 -1.140625 -0.296875q-1.046875 0 -1.8125 0.671875q-0.75 0.65625 -0.75 2.515625l0 5.28125l-1.640625 0zm16.641342 0l0 -1.21875q-0.90625 1.4375 -2.703125 1.4375q-1.15625 0 -2.125 -0.640625q-0.96875 -0.640625 -1.5 -1.78125q-0.53125 -1.140625 -0.53125 -2.625q0 -1.453125 0.484375 -2.625q0.484375 -1.1875 1.4375 -1.8125q0.96875 -0.625 2.171875 -0.625q0.875 0 1.546875 0.375q0.6875 0.359375 1.109375 0.953125l0 -4.796875l1.640625 0l0 13.359375l-1.53125 0zm-5.171875 -4.828125q0 1.859375 0.78125 2.78125q0.78125 0.921875 1.84375 0.921875q1.078125 0 1.828125 -0.875q0.75 -0.890625 0.75 -2.6875q0 -1.984375 -0.765625 -2.90625q-0.765625 -0.9375 -1.890625 -0.9375q-1.078125 0 -1.8125 0.890625q-0.734375 0.890625 -0.734375 2.8125zm14.137146 -1.671875q0 -3.328125 1.78125 -5.203125q1.78125 -1.890625 4.609375 -1.890625q1.84375 0 3.328125 0.890625q1.484375 0.875 2.265625 2.46875q0.78125 1.578125 0.78125 3.578125q0 2.03125 -0.828125 3.640625q-0.8125 1.59375 -2.3125 2.421875q-1.5 0.828125 -3.25 0.828125q-1.875 0 -3.359375 -0.90625q-1.484375 -0.921875 -2.25 -2.5q-0.765625 -1.578125 -0.765625 -3.328125zm1.8125 0.015625q0 2.421875 1.296875 3.8125q1.296875 1.390625 3.265625 1.390625q2.0 0 3.28125 -1.40625q1.28125 -1.40625 1.28125 -3.984375q0 -1.625 -0.546875 -2.84375q-0.546875 -1.21875 -1.609375 -1.875q-1.0625 -0.671875 -2.375 -0.671875q-1.890625 0 -3.25 1.296875q-1.34375 1.28125 -1.34375 4.28125zm22.761429 1.796875l1.765625 0.453125q-0.5625 2.171875 -2.0 3.328125q-1.4375 1.140625 -3.53125 1.140625q-2.15625 0 -3.515625 -0.875q-1.34375 -0.890625 -2.0625 -2.546875q-0.703125 -1.671875 -0.703125 -3.59375q0 -2.078125 0.796875 -3.625q0.796875 -1.5625 2.265625 -2.359375q1.484375 -0.8125 3.25 -0.8125q2.0 0 3.359375 1.015625q1.375 1.015625 1.90625 2.875l-1.734375 0.40625q-0.46875 -1.453125 -1.359375 -2.109375q-0.875 -0.671875 -2.203125 -0.671875q-1.546875 0 -2.578125 0.734375q-1.03125 0.734375 -1.453125 1.984375q-0.421875 1.234375 -0.421875 2.5625q0 1.703125 0.5 2.96875q0.5 1.265625 1.546875 1.90625q1.046875 0.625 2.265625 0.625q1.484375 0 2.515625 -0.859375q1.03125 -0.859375 1.390625 -2.546875zm4.238571 4.6875l0 -13.359375l1.765625 0l0 13.359375l-1.765625 0zm10.100983 0l0 -13.359375l5.921875 0q1.78125 0 2.703125 0.359375q0.9375 0.359375 1.484375 1.28125q0.5625 0.90625 0.5625 2.015625q0 1.40625 -0.921875 2.390625q-0.921875 0.96875 -2.84375 1.234375q0.703125 0.34375 1.078125 0.671875q0.765625 0.703125 1.453125 1.765625l2.328125 3.640625l-2.21875 0l-1.765625 -2.78125q-0.78125 -1.203125 -1.28125 -1.828125q-0.5 -0.640625 -0.90625 -0.890625q-0.390625 -0.265625 -0.796875 -0.359375q-0.296875 -0.078125 -0.984375 -0.078125l-2.046875 0l0 5.9375l-1.765625 0zm1.765625 -7.453125l3.796875 0q1.21875 0 1.890625 -0.25q0.6875 -0.265625 1.046875 -0.8125q0.359375 -0.546875 0.359375 -1.1875q0 -0.953125 -0.6875 -1.5625q-0.6875 -0.609375 -2.1875 -0.609375l-4.21875 0l0 4.421875zm17.801071 7.453125l0 -1.421875q-1.125 1.640625 -3.0625 1.640625q-0.859375 0 -1.609375 -0.328125q-0.734375 -0.328125 -1.09375 -0.828125q-0.359375 -0.5 -0.5 -1.21875q-0.109375 -0.46875 -0.109375 -1.53125l0 -5.984375l1.640625 0l0 5.359375q0 1.28125 0.109375 1.734375q0.15625 0.640625 0.65625 1.015625q0.5 0.375 1.234375 0.375q0.734375 0 1.375 -0.375q0.65625 -0.390625 0.921875 -1.03125q0.265625 -0.65625 0.265625 -1.890625l0 -5.1875l1.640625 0l0 9.671875l-1.46875 0zm4.047592 0l0 -9.671875l1.46875 0l0 1.375q1.0625 -1.59375 3.078125 -1.59375q0.875 0 1.609375 0.3125q0.734375 0.3125 1.09375 0.828125q0.375 0.5 0.515625 1.203125q0.09375 0.453125 0.09375 1.59375l0 5.953125l-1.640625 0l0 -5.890625q0 -1.0 -0.203125 -1.484375q-0.1875 -0.5 -0.671875 -0.796875q-0.484375 -0.296875 -1.140625 -0.296875q-1.046875 0 -1.8125 0.671875q-0.75 0.65625 -0.75 2.515625l0 5.28125l-1.640625 0zm13.953842 -1.46875l0.234375 1.453125q-0.6875 0.140625 -1.234375 0.140625q-0.890625 0 -1.390625 -0.28125q-0.484375 -0.28125 -0.6875 -0.734375q-0.203125 -0.46875 -0.203125 -1.9375l0 -5.578125l-1.203125 0l0 -1.265625l1.203125 0l0 -2.390625l1.625 -0.984375l0 3.375l1.65625 0l0 1.265625l-1.65625 0l0 5.671875q0 0.6875 0.078125 0.890625q0.09375 0.203125 0.28125 0.328125q0.203125 0.109375 0.578125 0.109375q0.265625 0 0.71875 -0.0625zm1.6051788 -10.0l0 -1.890625l1.640625 0l0 1.890625l-1.640625 0zm0 11.46875l0 -9.671875l1.640625 0l0 9.671875l-1.640625 0zm4.144821 0l0 -9.671875l1.46875 0l0 1.359375q0.453125 -0.71875 1.203125 -1.140625q0.765625 -0.4375 1.71875 -0.4375q1.078125 0 1.765625 0.453125q0.6875 0.4375 0.96875 1.234375q1.15625 -1.6875 2.984375 -1.6875q1.453125 0 2.21875 0.796875q0.78125 0.796875 0.78125 2.453125l0 6.640625l-1.640625 0l0 -6.09375q0 -0.984375 -0.15625 -1.40625q-0.15625 -0.4375 -0.578125 -0.703125q-0.421875 -0.265625 -0.984375 -0.265625q-1.015625 0 -1.6875 0.6875q-0.671875 0.671875 -0.671875 2.15625l0 5.625l-1.640625 0l0 -6.28125q0 -1.09375 -0.40625 -1.640625q-0.40625 -0.546875 -1.3125 -0.546875q-0.6875 0 -1.28125 0.359375q-0.59375 0.359375 -0.859375 1.0625q-0.25 0.703125 -0.25 2.03125l0 5.015625l-1.640625 0zm22.165802 -3.109375l1.6875 0.203125q-0.40625 1.484375 -1.484375 2.3125q-1.078125 0.8125 -2.765625 0.8125q-2.125 0 -3.375 -1.296875q-1.234375 -1.3125 -1.234375 -3.671875q0 -2.453125 1.25 -3.796875q1.265625 -1.34375 3.265625 -1.34375q1.9375 0 3.15625 1.328125q1.234375 1.3125 1.234375 3.703125q0 0.15625 0 0.4375l-7.21875 0q0.09375 1.59375 0.90625 2.453125q0.8125 0.84375 2.015625 0.84375q0.90625 0 1.546875 -0.46875q0.640625 -0.484375 1.015625 -1.515625zm-5.390625 -2.65625l5.40625 0q-0.109375 -1.21875 -0.625 -1.828125q-0.78125 -0.953125 -2.03125 -0.953125q-1.125 0 -1.90625 0.765625q-0.765625 0.75 -0.84375 2.015625z" fill-rule="nonzero"/><path fill="#6fa8dc" d="m102.94751 66.46982l247.81104 0l0 221.66928l-247.81104 0z" fill-rule="evenodd"/><path stroke="#000000" stroke-width="1.0" stroke-linejoin="round" stroke-linecap="butt" d="m102.94751 66.46982l247.81104 0l0 221.66928l-247.81104 0z" fill-rule="evenodd"/><path fill="#000000" d="m121.47711 93.38982l0 -13.359375l5.046875 0q1.328125 0 2.03125 0.125q0.96875 0.171875 1.640625 0.640625q0.671875 0.453125 1.078125 1.28125q0.40625 0.828125 0.40625 1.828125q0 1.703125 -1.09375 2.890625q-1.078125 1.171875 -3.921875 1.171875l-3.421875 0l0 5.421875l-1.765625 0zm1.765625 -7.0l3.453125 0q1.71875 0 2.4375 -0.640625q0.71875 -0.640625 0.71875 -1.796875q0 -0.84375 -0.421875 -1.4375q-0.421875 -0.59375 -1.125 -0.78125q-0.4375 -0.125 -1.640625 -0.125l-3.421875 0l0 4.78125zm9.865448 2.15625q0 -2.6875 1.484375 -3.96875q1.25 -1.078125 3.046875 -1.078125q2.0 0 3.265625 1.3125q1.265625 1.296875 1.265625 3.609375q0 1.859375 -0.5625 2.9375q-0.5625 1.0625 -1.640625 1.65625q-1.0625 0.59375 -2.328125 0.59375q-2.03125 0 -3.28125 -1.296875q-1.25 -1.3125 -1.25 -3.765625zm1.6875 0q0 1.859375 0.796875 2.796875q0.8125 0.921875 2.046875 0.921875q1.21875 0 2.03125 -0.921875q0.8125 -0.9375 0.8125 -2.84375q0 -1.796875 -0.8125 -2.71875q-0.8125 -0.921875 -2.03125 -0.921875q-1.234375 0 -2.046875 0.921875q-0.796875 0.90625 -0.796875 2.765625zm19.031967 0.15625l1.765625 0.453125q-0.5625 2.171875 -2.0 3.328125q-1.4375 1.140625 -3.53125 1.140625q-2.15625 0 -3.515625 -0.875q-1.34375 -0.890625 -2.0625 -2.546875q-0.703125 -1.671875 -0.703125 -3.59375q0 -2.078125 0.796875 -3.625q0.796875 -1.5625 2.265625 -2.359375q1.484375 -0.8125 3.25 -0.8125q2.0 0 3.359375 1.015625q1.375 1.015625 1.90625 2.875l-1.734375 0.40625q-0.46875 -1.453125 -1.359375 -2.109375q-0.875 -0.671875 -2.203125 -0.671875q-1.546875 0 -2.578125 0.734375q-1.03125 0.734375 -1.453125 1.984375q-0.421875 1.234375 -0.421875 2.5625q0 1.703125 0.5 2.96875q0.5 1.265625 1.546875 1.90625q1.046875 0.625 2.265625 0.625q1.484375 0 2.515625 -0.859375q1.03125 -0.859375 1.390625 -2.546875zm9.15625 4.6875l0 -13.359375l5.921875 0q1.78125 0 2.703125 0.359375q0.9375 0.359375 1.484375 1.28125q0.5625 0.90625 0.5625 2.015625q0 1.40625 -0.921875 2.390625q-0.921875 0.96875 -2.84375 1.234375q0.703125 0.34375 1.078125 0.671875q0.765625 0.703125 1.453125 1.765625l2.328125 3.640625l-2.21875 0l-1.765625 -2.78125q-0.78125 -1.203125 -1.28125 -1.828125q-0.5 -0.640625 -0.90625 -0.890625q-0.390625 -0.265625 -0.796875 -0.359375q-0.296875 -0.078125 -0.984375 -0.078125l-2.046875 0l0 5.9375l-1.765625 0zm1.765625 -7.453125l3.796875 0q1.21875 0 1.890625 -0.25q0.6875 -0.265625 1.046875 -0.8125q0.359375 -0.546875 0.359375 -1.1875q0 -0.953125 -0.6875 -1.5625q-0.6875 -0.609375 -2.1875 -0.609375l-4.21875 0l0 4.421875zm18.097946 4.34375l1.6875 0.203125q-0.40625 1.484375 -1.484375 2.3125q-1.078125 0.8125 -2.765625 0.8125q-2.125 0 -3.375 -1.296875q-1.234375 -1.3125 -1.234375 -3.671875q0 -2.453125 1.25 -3.796875q1.265625 -1.34375 3.265625 -1.34375q1.9375 0 3.15625 1.328125q1.234375 1.3125 1.234375 3.703125q0 0.15625 0 0.4375l-7.21875 0q0.09375 1.59375 0.90625 2.453125q0.8125 0.84375 2.015625 0.84375q0.90625 0 1.546875 -0.46875q0.640625 -0.484375 1.015625 -1.515625zm-5.390625 -2.65625l5.40625 0q-0.109375 -1.21875 -0.625 -1.828125q-0.78125 -0.953125 -2.03125 -0.953125q-1.125 0 -1.90625 0.765625q-0.765625 0.75 -0.84375 2.015625zm9.531967 5.765625l0 -8.40625l-1.453125 0l0 -1.265625l1.453125 0l0 -1.03125q0 -0.96875 0.171875 -1.453125q0.234375 -0.640625 0.828125 -1.03125q0.59375 -0.390625 1.671875 -0.390625q0.6875 0 1.53125 0.15625l-0.25 1.4375q-0.5 -0.09375 -0.953125 -0.09375q-0.75 0 -1.0625 0.328125q-0.3125 0.3125 -0.3125 1.1875l0 0.890625l1.890625 0l0 1.265625l-1.890625 0l0 8.40625l-1.625 0zm11.417679 -3.109375l1.6875 0.203125q-0.40625 1.484375 -1.484375 2.3125q-1.078125 0.8125 -2.765625 0.8125q-2.125 0 -3.375 -1.296875q-1.234375 -1.3125 -1.234375 -3.671875q0 -2.453125 1.25 -3.796875q1.265625 -1.34375 3.265625 -1.34375q1.9375 0 3.15625 1.328125q1.234375 1.3125 1.234375 3.703125q0 0.15625 0 0.4375l-7.21875 0q0.09375 1.59375 0.90625 2.453125q0.8125 0.84375 2.015625 0.84375q0.90625 0 1.546875 -0.46875q0.640625 -0.484375 1.015625 -1.515625zm-5.390625 -2.65625l5.40625 0q-0.109375 -1.21875 -0.625 -1.828125q-0.78125 -0.953125 -2.03125 -0.953125q-1.125 0 -1.90625 0.765625q-0.765625 0.75 -0.84375 2.015625zm9.125717 5.765625l0 -9.671875l1.46875 0l0 1.46875q0.5625 -1.03125 1.03125 -1.359375q0.484375 -0.328125 1.0625 -0.328125q0.828125 0 1.6875 0.53125l-0.5625 1.515625q-0.609375 -0.359375 -1.203125 -0.359375q-0.546875 0 -0.96875 0.328125q-0.421875 0.328125 -0.609375 0.890625q-0.28125 0.875 -0.28125 1.921875l0 5.0625l-1.625 0zm12.853302 -3.109375l1.6875 0.203125q-0.40625 1.484375 -1.484375 2.3125q-1.078125 0.8125 -2.765625 0.8125q-2.125 0 -3.375 -1.296875q-1.234375 -1.3125 -1.234375 -3.671875q0 -2.453125 1.25 -3.796875q1.265625 -1.34375 3.265625 -1.34375q1.9375 0 3.15625 1.328125q1.234375 1.3125 1.234375 3.703125q0 0.15625 0 0.4375l-7.21875 0q0.09375 1.59375 0.90625 2.453125q0.8125 0.84375 2.015625 0.84375q0.90625 0 1.546875 -0.46875q0.640625 -0.484375 1.015625 -1.515625zm-5.390625 -2.65625l5.40625 0q-0.109375 -1.21875 -0.625 -1.828125q-0.78125 -0.953125 -2.03125 -0.953125q-1.125 0 -1.90625 0.765625q-0.765625 0.75 -0.84375 2.015625zm9.141342 5.765625l0 -9.671875l1.46875 0l0 1.375q1.0625 -1.59375 3.078125 -1.59375q0.875 0 1.609375 0.3125q0.734375 0.3125 1.09375 0.828125q0.375 0.5 0.515625 1.203125q0.09375 0.453125 0.09375 1.59375l0 5.953125l-1.640625 0l0 -5.890625q0 -1.0 -0.203125 -1.484375q-0.1875 -0.5 -0.671875 -0.796875q-0.484375 -0.296875 -1.140625 -0.296875q-1.046875 0 -1.8125 0.671875q-0.75 0.65625 -0.75 2.515625l0 5.28125l-1.640625 0zm16.688217 -3.546875l1.609375 0.21875q-0.265625 1.65625 -1.359375 2.609375q-1.078125 0.9375 -2.671875 0.9375q-1.984375 0 -3.1875 -1.296875q-1.203125 -1.296875 -1.203125 -3.71875q0 -1.578125 0.515625 -2.75q0.515625 -1.171875 1.578125 -1.75q1.0625 -0.59375 2.3125 -0.59375q1.578125 0 2.578125 0.796875q1.0 0.796875 1.28125 2.265625l-1.59375 0.234375q-0.234375 -0.96875 -0.8125 -1.453125q-0.578125 -0.5 -1.390625 -0.5q-1.234375 0 -2.015625 0.890625q-0.78125 0.890625 -0.78125 2.8125q0 1.953125 0.75 2.84375q0.75 0.875 1.953125 0.875q0.96875 0 1.609375 -0.59375q0.65625 -0.59375 0.828125 -1.828125zm9.640625 0.4375l1.6875 0.203125q-0.40625 1.484375 -1.484375 2.3125q-1.078125 0.8125 -2.765625 0.8125q-2.125 0 -3.375 -1.296875q-1.234375 -1.3125 -1.234375 -3.671875q0 -2.453125 1.25 -3.796875q1.265625 -1.34375 3.265625 -1.34375q1.9375 0 3.15625 1.328125q1.234375 1.3125 1.234375 3.703125q0 0.15625 0 0.4375l-7.21875 0q0.09375 1.59375 0.90625 2.453125q0.8125 0.84375 2.015625 0.84375q0.90625 0 1.546875 -0.46875q0.640625 -0.484375 1.015625 -1.515625zm-5.390625 -2.65625l5.40625 0q-0.109375 -1.21875 -0.625 -1.828125q-0.78125 -0.953125 -2.03125 -0.953125q-1.125 0 -1.90625 0.765625q-0.765625 0.75 -0.84375 2.015625zm24.059006 1.078125l1.765625 0.453125q-0.5625 2.171875 -2.0 3.328125q-1.4375 1.140625 -3.53125 1.140625q-2.15625 0 -3.515625 -0.875q-1.3437347 -0.890625 -2.0624847 -2.546875q-0.703125 -1.671875 -0.703125 -3.59375q0 -2.078125 0.796875 -3.625q0.796875 -1.5625 2.2656097 -2.359375q1.484375 -0.8125 3.25 -0.8125q2.0 0 3.359375 1.015625q1.375 1.015625 1.90625 2.875l-1.734375 0.40625q-0.46875 -1.453125 -1.359375 -2.109375q-0.875 -0.671875 -2.203125 -0.671875q-1.546875 0 -2.578125 0.734375q-1.03125 0.734375 -1.4531097 1.984375q-0.421875 1.234375 -0.421875 2.5625q0 1.703125 0.49998474 2.96875q0.5 1.265625 1.546875 1.90625q1.046875 0.625 2.265625 0.625q1.484375 0 2.515625 -0.859375q1.03125 -0.859375 1.390625 -2.546875zm3.1292114 -0.15625q0 -2.6875 1.484375 -3.96875q1.25 -1.078125 3.046875 -1.078125q2.0 0 3.265625 1.3125q1.265625 1.296875 1.265625 3.609375q0 1.859375 -0.5625 2.9375q-0.5625 1.0625 -1.640625 1.65625q-1.0625 0.59375 -2.328125 0.59375q-2.03125 0 -3.28125 -1.296875q-1.25 -1.3125 -1.25 -3.765625zm1.6875 0q0 1.859375 0.796875 2.796875q0.8125 0.921875 2.046875 0.921875q1.21875 0 2.03125 -0.921875q0.8125 -0.9375 0.8125 -2.84375q0 -1.796875 -0.8125 -2.71875q-0.8125 -0.921875 -2.03125 -0.921875q-1.234375 0 -2.046875 0.921875q-0.796875 0.90625 -0.796875 2.765625zm9.297577 4.84375l0 -9.671875l1.46875 0l0 1.375q1.0625 -1.59375 3.078125 -1.59375q0.875 0 1.609375 0.3125q0.734375 0.3125 1.09375 0.828125q0.375 0.5 0.515625 1.203125q0.09375 0.453125 0.09375 1.59375l0 5.953125l-1.640625 0l0 -5.890625q0 -1.0 -0.203125 -1.484375q-0.1875 -0.5 -0.671875 -0.796875q-0.484375 -0.296875 -1.140625 -0.296875q-1.046875 0 -1.8125 0.671875q-0.75 0.65625 -0.75 2.515625l0 5.28125l-1.640625 0zm13.953857 -1.46875l0.234375 1.453125q-0.6875 0.140625 -1.234375 0.140625q-0.890625 0 -1.390625 -0.28125q-0.484375 -0.28125 -0.6875 -0.734375q-0.203125 -0.46875 -0.203125 -1.9375l0 -5.578125l-1.203125 0l0 -1.265625l1.203125 0l0 -2.390625l1.625 -0.984375l0 3.375l1.65625 0l0 1.265625l-1.65625 0l0 5.671875q0 0.6875 0.078125 0.890625q0.09375 0.203125 0.28125 0.328125q0.203125 0.109375 0.578125 0.109375q0.265625 0 0.71875 -0.0625zm7.9176636 0.28125q-0.921875 0.765625 -1.765625 1.09375q-0.828125 0.3125 -1.796875 0.3125q-1.59375 0 -2.453125 -0.78125q-0.859375 -0.78125 -0.859375 -1.984375q0 -0.71875 0.328125 -1.296875q0.328125 -0.59375 0.84375 -0.9375q0.53125 -0.359375 1.1875 -0.546875q0.46875 -0.125 1.453125 -0.25q1.984375 -0.234375 2.921875 -0.5625q0.015625 -0.34375 0.015625 -0.421875q0 -1.0 -0.46875 -1.421875q-0.625 -0.546875 -1.875 -0.546875q-1.15625 0 -1.703125 0.40625q-0.546875 0.40625 -0.8125 1.421875l-1.609375 -0.21875q0.21875 -1.015625 0.71875 -1.640625q0.5 -0.640625 1.453125 -0.984375q0.953125 -0.34375 2.1875 -0.34375q1.25 0 2.015625 0.296875q0.78125 0.28125 1.140625 0.734375q0.375 0.4375 0.515625 1.109375q0.078125 0.421875 0.078125 1.515625l0 2.1875q0 2.28125 0.109375 2.890625q0.109375 0.59375 0.40625 1.15625l-1.703125 0q-0.265625 -0.515625 -0.328125 -1.1875zm-0.140625 -3.671875q-0.890625 0.375 -2.671875 0.625q-1.015625 0.140625 -1.4375 0.328125q-0.421875 0.1875 -0.65625 0.53125q-0.21875 0.34375 -0.21875 0.78125q0 0.65625 0.5 1.09375q0.5 0.4375 1.453125 0.4375q0.9375 0 1.671875 -0.40625q0.75 -0.421875 1.09375 -1.140625q0.265625 -0.5625 0.265625 -1.640625l0 -0.609375zm4.2038574 -6.609375l0 -1.890625l1.640625 0l0 1.890625l-1.640625 0zm0 11.46875l0 -9.671875l1.640625 0l0 9.671875l-1.640625 0zm4.144806 0l0 -9.671875l1.46875 0l0 1.375q1.0625 -1.59375 3.078125 -1.59375q0.875 0 1.609375 0.3125q0.734375 0.3125 1.09375 0.828125q0.375 0.5 0.515625 1.203125q0.09375 0.453125 0.09375 1.59375l0 5.953125l-1.640625 0l0 -5.890625q0 -1.0 -0.203125 -1.484375q-0.1875 -0.5 -0.671875 -0.796875q-0.484375 -0.296875 -1.140625 -0.296875q-1.046875 0 -1.8125 0.671875q-0.75 0.65625 -0.75 2.515625l0 5.28125l-1.640625 0zm17.000732 -3.109375l1.6875 0.203125q-0.40625 1.484375 -1.484375 2.3125q-1.078125 0.8125 -2.765625 0.8125q-2.125 0 -3.375 -1.296875q-1.234375 -1.3125 -1.234375 -3.671875q0 -2.453125 1.25 -3.796875q1.265625 -1.34375 3.265625 -1.34375q1.9375 0 3.15625 1.328125q1.234375 1.3125 1.234375 3.703125q0 0.15625 0 0.4375l-7.21875 0q0.09375 1.59375 0.90625 2.453125q0.8125 0.84375 2.015625 0.84375q0.90625 0 1.546875 -0.46875q0.640625 -0.484375 1.015625 -1.515625zm-5.390625 -2.65625l5.40625 0q-0.109375 -1.21875 -0.625 -1.828125q-0.78125 -0.953125 -2.03125 -0.953125q-1.125 0 -1.90625 0.765625q-0.765625 0.75 -0.84375 2.015625zm9.125702 5.765625l0 -9.671875l1.46875 0l0 1.46875q0.5625 -1.03125 1.03125 -1.359375q0.484375 -0.328125 1.0625 -0.328125q0.828125 0 1.6875 0.53125l-0.5625 1.515625q-0.609375 -0.359375 -1.203125 -0.359375q-0.546875 0 -0.96875 0.328125q-0.421875 0.328125 -0.609375 0.890625q-0.28125 0.875 -0.28125 1.921875l0 5.0625l-1.625 0z" fill-rule="nonzero"/><path fill="#d9d9d9" d="m134.5958 110.6273l88.31497 0l0 76.59843l-88.31497 0z" fill-rule="evenodd"/><path stroke="#000000" stroke-width="1.0" stroke-linejoin="round" stroke-linecap="butt" d="m134.5958 110.6273l88.31497 0l0 76.59843l-88.31497 0z" fill-rule="evenodd"/><path fill="#000000" d="m149.67804 154.00652l0 -10.484375l1.390625 0l0 9.25l5.15625 0l0 1.234375l-6.546875 0zm7.557358 -3.796875q0 -2.109375 1.171875 -3.125q0.984375 -0.84375 2.390625 -0.84375q1.578125 0 2.5625 1.03125q1.0 1.015625 1.0 2.828125q0 1.46875 -0.4375 2.3125q-0.4375 0.828125 -1.28125 1.296875q-0.84375 0.46875 -1.84375 0.46875q-1.59375 0 -2.578125 -1.015625q-0.984375 -1.03125 -0.984375 -2.953125zm1.328125 0q0 1.453125 0.625 2.1875q0.640625 0.71875 1.609375 0.71875q0.96875 0 1.59375 -0.71875q0.640625 -0.734375 0.640625 -2.234375q0 -1.40625 -0.640625 -2.125q-0.640625 -0.734375 -1.59375 -0.734375q-0.96875 0 -1.609375 0.71875q-0.625 0.71875 -0.625 2.1875zm12.260483 2.859375q-0.71875 0.609375 -1.375 0.859375q-0.65625 0.25 -1.421875 0.25q-1.25 0 -1.921875 -0.609375q-0.671875 -0.609375 -0.671875 -1.5625q0 -0.5625 0.25 -1.015625q0.25 -0.46875 0.65625 -0.75q0.421875 -0.28125 0.9375 -0.421875q0.375 -0.09375 1.140625 -0.1875q1.5625 -0.1875 2.296875 -0.453125q0.015625 -0.265625 0.015625 -0.328125q0 -0.796875 -0.375 -1.109375q-0.484375 -0.4375 -1.453125 -0.4375q-0.921875 0 -1.359375 0.328125q-0.421875 0.3125 -0.625 1.109375l-1.265625 -0.171875q0.171875 -0.796875 0.5625 -1.296875q0.390625 -0.5 1.140625 -0.765625q0.75 -0.265625 1.71875 -0.265625q0.984375 0 1.59375 0.234375q0.609375 0.21875 0.890625 0.5625q0.28125 0.34375 0.40625 0.875q0.0625 0.328125 0.0625 1.1875l0 1.71875q0 1.796875 0.078125 2.28125q0.078125 0.46875 0.328125 0.90625l-1.34375 0q-0.203125 -0.40625 -0.265625 -0.9375zm-0.109375 -2.875q-0.703125 0.28125 -2.09375 0.484375q-0.796875 0.109375 -1.125 0.265625q-0.328125 0.140625 -0.515625 0.421875q-0.171875 0.265625 -0.171875 0.59375q0 0.515625 0.390625 0.859375q0.390625 0.34375 1.140625 0.34375q0.734375 0 1.3125 -0.3125q0.59375 -0.328125 0.859375 -0.890625q0.203125 -0.4375 0.203125 -1.296875l0 -0.46875zm8.229233 3.8125l0 -0.953125q-0.71875 1.125 -2.125 1.125q-0.90625 0 -1.671875 -0.5q-0.75 -0.5 -1.171875 -1.390625q-0.421875 -0.90625 -0.421875 -2.078125q0 -1.140625 0.375 -2.0625q0.390625 -0.921875 1.140625 -1.40625q0.765625 -0.5 1.703125 -0.5q0.6875 0 1.21875 0.296875q0.53125 0.28125 0.875 0.734375l0 -3.75l1.28125 0l0 10.484375l-1.203125 0zm-4.0625 -3.796875q0 1.46875 0.609375 2.1875q0.625 0.71875 1.453125 0.71875q0.84375 0 1.4375 -0.6875q0.59375 -0.6875 0.59375 -2.109375q0 -1.5625 -0.609375 -2.28125q-0.59375 -0.734375 -1.484375 -0.734375q-0.84375 0 -1.421875 0.703125q-0.578125 0.703125 -0.578125 2.203125zm12.369858 -0.3125l0 -1.234375l4.4375 -0.015625l0 3.90625q-1.03125 0.8125 -2.125 1.21875q-1.078125 0.40625 -2.21875 0.40625q-1.546875 0 -2.8125 -0.65625q-1.265625 -0.65625 -1.90625 -1.90625q-0.640625 -1.265625 -0.640625 -2.8125q0 -1.53125 0.640625 -2.84375q0.640625 -1.328125 1.84375 -1.96875q1.203125 -0.65625 2.765625 -0.65625q1.140625 0 2.0625 0.375q0.921875 0.359375 1.4375 1.03125q0.53125 0.65625 0.796875 1.703125l-1.25 0.34375q-0.234375 -0.796875 -0.59375 -1.25q-0.34375 -0.46875 -1.0 -0.734375q-0.65625 -0.28125 -1.4375 -0.28125q-0.953125 0 -1.65625 0.296875q-0.6875 0.28125 -1.125 0.765625q-0.421875 0.46875 -0.65625 1.03125q-0.390625 0.96875 -0.390625 2.109375q0 1.40625 0.46875 2.359375q0.484375 0.9375 1.40625 1.390625q0.9375 0.453125 1.96875 0.453125q0.90625 0 1.765625 -0.34375q0.859375 -0.34375 1.296875 -0.734375l0 -1.953125l-3.078125 0zm11.525085 1.65625l1.328125 0.171875q-0.3125 1.171875 -1.171875 1.8125q-0.84373474 0.640625 -2.1718597 0.640625q-1.671875 0 -2.65625 -1.015625q-0.96875 -1.03125 -0.96875 -2.890625q0 -1.921875 0.984375 -2.96875q1.0 -1.0625 2.578125 -1.0625q1.515625 0 2.4843597 1.03125q0.96875 1.03125 0.96875 2.921875q0 0.109375 -0.015625 0.34375l-5.6562347 0q0.0625 1.25 0.703125 1.921875q0.640625 0.65625 1.59375 0.65625q0.703125 0 1.203125 -0.359375q0.5 -0.375 0.79685974 -1.203125zm-4.2343597 -2.078125l4.2499847 0q-0.09375 -0.953125 -0.48435974 -1.4375q-0.625 -0.75 -1.609375 -0.75q-0.875 0 -1.484375 0.59375q-0.609375 0.59375 -0.671875 1.59375zm7.1823425 4.53125l0 -7.59375l1.15625 0l0 1.078125q0.84375 -1.25 2.421875 -1.25q0.6875 0 1.265625 0.25q0.578125 0.234375 0.859375 0.640625q0.28125 0.40625 0.40625 0.953125q0.0625 0.359375 0.0625 1.25l0 4.671875l-1.28125 0l0 -4.625q0 -0.78125 -0.15625 -1.171875q-0.15625 -0.390625 -0.546875 -0.625q-0.375 -0.234375 -0.890625 -0.234375q-0.8125 0 -1.421875 0.53125q-0.59375 0.515625 -0.59375 1.96875l0 4.15625l-1.28125 0z" fill-rule="nonzero"/><path fill="#d9d9d9" d="m135.49344 205.80315l0 0c0 5.288025 19.368088 9.574814 43.259842 9.574814c23.891754 0 43.259842 -4.286789 43.259842 -9.574814l0 57.448837c0 5.2879944 -19.368088 9.574799 -43.259842 9.574799c-23.891754 0 -43.259842 -4.286804 -43.259842 -9.574799z" fill-rule="evenodd"/><path fill="#e8e8e8" d="m135.49344 205.80315l0 0c0 -5.2880096 19.368088 -9.574799 43.259842 -9.574799c23.891754 0 43.259842 4.286789 43.259842 9.574799l0 0c0 5.288025 -19.368088 9.574814 -43.259842 9.574814c-23.891754 0 -43.259842 -4.286789 -43.259842 -9.574814z" fill-rule="evenodd"/><path fill="#000000" fill-opacity="0.0" d="m222.01312 205.80315l0 0c0 5.288025 -19.368088 9.574814 -43.259842 9.574814c-23.891754 0 -43.259842 -4.286789 -43.259842 -9.574814l0 0c0 -5.2880096 19.368088 -9.574799 43.259842 -9.574799c23.891754 0 43.259842 4.286789 43.259842 9.574799l0 57.448837c0 5.2879944 -19.368088 9.574799 -43.259842 9.574799c-23.891754 0 -43.259842 -4.286804 -43.259842 -9.574799l0 -57.448837" fill-rule="evenodd"/><path stroke="#000000" stroke-width="1.0" stroke-linejoin="round" stroke-linecap="butt" d="m222.01312 205.80315l0 0c0 5.288025 -19.368088 9.574814 -43.259842 9.574814c-23.891754 0 -43.259842 -4.286789 -43.259842 -9.574814l0 0c0 -5.2880096 19.368088 -9.574799 43.259842 -9.574799c23.891754 0 43.259842 4.286789 43.259842 9.574799l0 57.448837c0 5.2879944 -19.368088 9.574799 -43.259842 9.574799c-23.891754 0 -43.259842 -4.286804 -43.259842 -9.574799l0 -57.448837" fill-rule="evenodd"/><path fill="#000000" d="m157.91344 241.15933l1.515625 0.375q-0.46875 1.875 -1.71875 2.859375q-1.234375 0.984375 -3.015625 0.984375q-1.859375 0 -3.015625 -0.75q-1.15625 -0.765625 -1.765625 -2.1875q-0.609375 -1.4375 -0.609375 -3.078125q0 -1.796875 0.6875 -3.125q0.6875 -1.328125 1.9375 -2.015625q1.265625 -0.703125 2.78125 -0.703125q1.71875 0 2.890625 0.875q1.171875 0.875 1.640625 2.46875l-1.5 0.34375q-0.390625 -1.25 -1.15625 -1.8125q-0.75 -0.578125 -1.90625 -0.578125q-1.3125 0 -2.203125 0.640625q-0.890625 0.625 -1.25 1.703125q-0.359375 1.0625 -0.359375 2.1875q0 1.46875 0.421875 2.5625q0.4375 1.078125 1.328125 1.625q0.90625 0.53125 1.953125 0.53125q1.265625 0 2.140625 -0.734375q0.890625 -0.734375 1.203125 -2.171875zm2.6796875 -0.140625q0 -2.296875 1.28125 -3.40625q1.078125 -0.921875 2.609375 -0.921875q1.71875 0 2.796875 1.125q1.09375 1.109375 1.09375 3.09375q0 1.59375 -0.484375 2.515625q-0.484375 0.921875 -1.40625 1.4375q-0.90625 0.5 -2.0 0.5q-1.734375 0 -2.8125 -1.109375q-1.078125 -1.125 -1.078125 -3.234375zm1.453125 0q0 1.59375 0.6875 2.390625q0.703125 0.796875 1.75 0.796875q1.046875 0 1.734375 -0.796875q0.703125 -0.796875 0.703125 -2.4375q0 -1.53125 -0.703125 -2.328125q-0.6875 -0.796875 -1.734375 -0.796875q-1.046875 0 -1.75 0.796875q-0.6875 0.78125 -0.6875 2.375zm7.7109375 4.84375l1.375 0.203125q0.078125 0.640625 0.46875 0.921875q0.53125 0.390625 1.4375 0.390625q0.96875 0 1.5 -0.390625q0.53125 -0.390625 0.71875 -1.09375q0.109375 -0.421875 0.109375 -1.8125q-0.921875 1.09375 -2.296875 1.09375q-1.71875 0 -2.65625 -1.234375q-0.9375 -1.234375 -0.9375 -2.96875q0 -1.1875 0.421875 -2.1875q0.4375 -1.0 1.25 -1.546875q0.828125 -0.546875 1.921875 -0.546875q1.46875 0 2.421875 1.1875l0 -1.0l1.296875 0l0 7.171875q0 1.9375 -0.390625 2.75q-0.390625 0.8125 -1.25 1.28125q-0.859375 0.46875 -2.109375 0.46875q-1.484375 0 -2.40625 -0.671875q-0.90625 -0.671875 -0.875 -2.015625zm1.171875 -4.984375q0 1.625 0.640625 2.375q0.65625 0.75 1.625 0.75q0.96875 0 1.625 -0.734375q0.65625 -0.75 0.65625 -2.34375q0 -1.53125 -0.671875 -2.296875q-0.671875 -0.78125 -1.625 -0.78125q-0.9375 0 -1.59375 0.765625q-0.65625 0.765625 -0.65625 2.265625zm7.9921875 4.296875l0 -8.296875l1.265625 0l0 1.171875q0.90625 -1.359375 2.640625 -1.359375q0.75 0 1.375 0.265625q0.625 0.265625 0.9375 0.703125q0.3125 0.4375 0.4375 1.046875q0.078125 0.390625 0.078125 1.359375l0 5.109375l-1.40625 0l0 -5.046875q0 -0.859375 -0.171875 -1.28125q-0.15625 -0.4375 -0.578125 -0.6875q-0.40625 -0.25 -0.96875 -0.25q-0.90625 0 -1.5625 0.578125q-0.640625 0.5625 -0.640625 2.15625l0 4.53125l-1.40625 0zm14.3046875 -1.03125q-0.78125 0.671875 -1.5 0.953125q-0.71875 0.265625 -1.546875 0.265625q-1.375 0 -2.109375 -0.671875q-0.734375 -0.671875 -0.734375 -1.703125q0 -0.609375 0.28125 -1.109375q0.28125 -0.515625 0.71875 -0.8125q0.453125 -0.3125 1.015625 -0.46875q0.421875 -0.109375 1.25 -0.203125q1.703125 -0.203125 2.515625 -0.484375q0 -0.296875 0 -0.375q0 -0.859375 -0.390625 -1.203125q-0.546875 -0.484375 -1.609375 -0.484375q-0.984375 0 -1.46875 0.359375q-0.46875 0.34375 -0.6875 1.21875l-1.375 -0.1875q0.1875 -0.875 0.609375 -1.421875q0.4375 -0.546875 1.25 -0.828125q0.8125 -0.296875 1.875 -0.296875q1.0625 0 1.71875 0.25q0.671875 0.25 0.984375 0.625q0.3125 0.375 0.4375 0.953125q0.078125 0.359375 0.078125 1.296875l0 1.875q0 1.96875 0.078125 2.484375q0.09375 0.515625 0.359375 1.0l-1.46875 0q-0.21875 -0.4375 -0.28125 -1.03125zm-0.109375 -3.140625q-0.765625 0.3125 -2.296875 0.53125q-0.875 0.125 -1.234375 0.28125q-0.359375 0.15625 -0.5625 0.46875q-0.1875 0.296875 -0.1875 0.65625q0 0.5625 0.421875 0.9375q0.4375 0.375 1.25 0.375q0.8125 0 1.4375 -0.34375q0.640625 -0.359375 0.9375 -0.984375q0.234375 -0.46875 0.234375 -1.40625l0 -0.515625zm6.6640625 2.90625l0.203125 1.25q-0.59375 0.125 -1.0625 0.125q-0.765625 0 -1.1875 -0.234375q-0.421875 -0.25 -0.59375 -0.640625q-0.171875 -0.40625 -0.171875 -1.671875l0 -4.765625l-1.03125 0l0 -1.09375l1.03125 0l0 -2.0625l1.40625 -0.84375l0 2.90625l1.40625 0l0 1.09375l-1.40625 0l0 4.84375q0 0.609375 0.0625 0.78125q0.078125 0.171875 0.25 0.28125q0.171875 0.09375 0.484375 0.09375q0.234375 0 0.609375 -0.0625zm6.7890625 0.234375q-0.78125 0.671875 -1.5 0.953125q-0.71875 0.265625 -1.546875 0.265625q-1.375 0 -2.109375 -0.671875q-0.734375 -0.671875 -0.734375 -1.703125q0 -0.609375 0.28125 -1.109375q0.28125 -0.515625 0.71875 -0.8125q0.453125 -0.3125 1.015625 -0.46875q0.421875 -0.109375 1.25 -0.203125q1.703125 -0.203125 2.515625 -0.484375q0 -0.296875 0 -0.375q0 -0.859375 -0.390625 -1.203125q-0.546875 -0.484375 -1.609375 -0.484375q-0.984375 0 -1.46875 0.359375q-0.46875 0.34375 -0.6875 1.21875l-1.375 -0.1875q0.1875 -0.875 0.609375 -1.421875q0.4375 -0.546875 1.25 -0.828125q0.8125 -0.296875 1.875 -0.296875q1.0625 0 1.71875 0.25q0.671875 0.25 0.984375 0.625q0.3125 0.375 0.4375 0.953125q0.078125 0.359375 0.078125 1.296875l0 1.875q0 1.96875 0.078125 2.484375q0.09375 0.515625 0.359375 1.0l-1.46875 0q-0.21875 -0.4375 -0.28125 -1.03125zm-0.109375 -3.140625q-0.765625 0.3125 -2.296875 0.53125q-0.875 0.125 -1.234375 0.28125q-0.359375 0.15625 -0.5625 0.46875q-0.1875 0.296875 -0.1875 0.65625q0 0.5625 0.421875 0.9375q0.4375 0.375 1.25 0.375q0.8125 0 1.4375 -0.34375q0.640625 -0.359375 0.9375 -0.984375q0.234375 -0.46875 0.234375 -1.40625l0 -0.515625z" fill-rule="nonzero"/><path fill="#d9d9d9" d="m230.79527 110.6273l88.31496 0l0 76.59843l-88.31496 0z" fill-rule="evenodd"/><path stroke="#000000" stroke-width="1.0" stroke-linejoin="round" stroke-linecap="butt" d="m230.79527 110.6273l88.31496 0l0 76.59843l-88.31496 0z" fill-rule="evenodd"/><path fill="#000000" d="m254.63104 134.38277l1.265625 0.3125q-0.390625 1.5625 -1.421875 2.375q-1.03125 0.8125 -2.53125 0.8125q-1.53125 0 -2.5 -0.625q-0.96875 -0.625 -1.484375 -1.8125q-0.5 -1.1875 -0.5 -2.5625q0 -1.484375 0.5625 -2.59375q0.578125 -1.109375 1.625 -1.6875q1.0625 -0.578125 2.328125 -0.578125q1.421875 0 2.390625 0.734375q0.984375 0.71875 1.375 2.046875l-1.25 0.296875q-0.328125 -1.046875 -0.96875 -1.515625q-0.625 -0.484375 -1.578125 -0.484375q-1.09375 0 -1.84375 0.53125q-0.734375 0.53125 -1.03125 1.421875q-0.296875 0.875 -0.296875 1.828125q0 1.21875 0.34375 2.125q0.359375 0.90625 1.109375 1.359375q0.75 0.4375 1.625 0.4375q1.0625 0 1.796875 -0.609375q0.734375 -0.609375 0.984375 -1.8125zm2.2345276 -0.109375q0 -1.921875 1.078125 -2.84375q0.890625 -0.765625 2.171875 -0.765625q1.421875 0 2.328125 0.9375q0.90625 0.921875 0.90625 2.578125q0 1.328125 -0.40625 2.09375q-0.390625 0.765625 -1.15625 1.1875q-0.765625 0.421875 -1.671875 0.421875q-1.453125 0 -2.359375 -0.921875q-0.890625 -0.9375 -0.890625 -2.6875zm1.203125 0q0 1.328125 0.578125 1.984375q0.59375 0.65625 1.46875 0.65625q0.875 0 1.453125 -0.65625q0.578125 -0.671875 0.578125 -2.03125q0 -1.28125 -0.59375 -1.9375q-0.578125 -0.65625 -1.4375 -0.65625q-0.875 0 -1.46875 0.65625q-0.578125 0.65625 -0.578125 1.984375zm6.6468506 3.453125l0 -6.90625l1.046875 0l0 0.96875q0.328125 -0.515625 0.859375 -0.8125q0.546875 -0.3125 1.234375 -0.3125q0.78125 0 1.265625 0.3125q0.484375 0.3125 0.6875 0.890625q0.828125 -1.203125 2.140625 -1.203125q1.03125 0 1.578125 0.578125q0.5625 0.5625 0.5625 1.734375l0 4.75l-1.171875 0l0 -4.359375q0 -0.703125 -0.125 -1.0q-0.109375 -0.3125 -0.40625 -0.5q-0.296875 -0.1875 -0.703125 -0.1875q-0.71875 0 -1.203125 0.484375q-0.484375 0.484375 -0.484375 1.546875l0 4.015625l-1.171875 0l0 -4.484375q0 -0.78125 -0.296875 -1.171875q-0.28125 -0.390625 -0.921875 -0.390625q-0.5 0 -0.921875 0.265625q-0.421875 0.25 -0.609375 0.75q-0.1875 0.5 -0.1875 1.453125l0 3.578125l-1.171875 0zm11.1024475 2.65625l0 -9.5625l1.078125 0l0 0.890625q0.375 -0.53125 0.84375 -0.78125q0.484375 -0.265625 1.15625 -0.265625q0.875 0 1.546875 0.453125q0.6875 0.453125 1.03125 1.28125q0.34375 0.828125 0.34375 1.828125q0 1.046875 -0.375 1.90625q-0.375 0.84375 -1.109375 1.296875q-0.71875 0.453125 -1.53125 0.453125q-0.578125 0 -1.046875 -0.25q-0.46875 -0.25 -0.765625 -0.625l0 3.375l-1.171875 0zm1.0625 -6.078125q0 1.34375 0.53125 1.984375q0.546875 0.625 1.3125 0.625q0.78125 0 1.34375 -0.65625q0.5625 -0.65625 0.5625 -2.046875q0 -1.3125 -0.546875 -1.96875q-0.546875 -0.671875 -1.296875 -0.671875q-0.75 0 -1.328125 0.703125q-0.578125 0.703125 -0.578125 2.03125zm6.3656006 -4.765625l0 -1.359375l1.171875 0l0 1.359375l-1.171875 0zm0 8.1875l0 -6.90625l1.171875 0l0 6.90625l-1.171875 0zm2.92984 0l0 -9.546875l1.171875 0l0 9.546875l-1.171875 0zm7.71109 -2.21875l1.203125 0.140625q-0.28125 1.0625 -1.0625 1.65625q-0.765625 0.578125 -1.96875 0.578125q-1.515625 0 -2.40625 -0.9375q-0.890625 -0.9375 -0.890625 -2.609375q0 -1.75 0.890625 -2.703125q0.90625 -0.96875 2.34375 -0.96875q1.390625 0 2.265625 0.9375q0.875 0.9375 0.875 2.65625q0 0.109375 0 0.3125l-5.15625 0q0.0625 1.140625 0.640625 1.75q0.578125 0.59375 1.4375 0.59375q0.65625 0 1.109375 -0.328125q0.453125 -0.34375 0.71875 -1.078125zm-3.84375 -1.90625l3.859375 0q-0.078125 -0.859375 -0.4375 -1.296875q-0.5625 -0.6875 -1.453125 -0.6875q-0.8125 0 -1.359375 0.546875q-0.546875 0.53125 -0.609375 1.4375zm11.006226 4.125l0 -0.875q-0.65625 1.03125 -1.9375 1.03125q-0.8125 0 -1.515625 -0.453125q-0.6875 -0.453125 -1.078125 -1.265625q-0.375 -0.828125 -0.375 -1.890625q0 -1.03125 0.34375 -1.875q0.34375 -0.84375 1.03125 -1.28125q0.703125 -0.453125 1.546875 -0.453125q0.625 0 1.109375 0.265625q0.5 0.25 0.796875 0.671875l0 -3.421875l1.171875 0l0 9.546875l-1.09375 0zm-3.703125 -3.453125q0 1.328125 0.5625 1.984375q0.5625 0.65625 1.328125 0.65625q0.765625 0 1.296875 -0.625q0.53125 -0.625 0.53125 -1.90625q0 -1.421875 -0.546875 -2.078125q-0.546875 -0.671875 -1.34375 -0.671875q-0.78125 0 -1.3125 0.640625q-0.515625 0.625 -0.515625 2.0z" fill-rule="nonzero"/><path fill="#000000" d="m242.96156 150.66402l1.203125 -0.109375q0.078125 0.71875 0.390625 1.1875q0.3125 0.453125 0.953125 0.734375q0.65625 0.28125 1.46875 0.28125q0.71875 0 1.265625 -0.21875q0.5625 -0.21875 0.828125 -0.578125q0.265625 -0.375 0.265625 -0.828125q0 -0.453125 -0.265625 -0.78125q-0.25 -0.328125 -0.84375 -0.5625q-0.390625 -0.15625 -1.703125 -0.46875q-1.3125 -0.3125 -1.84375 -0.59375q-0.671875 -0.359375 -1.015625 -0.890625q-0.328125 -0.53125 -0.328125 -1.1875q0 -0.71875 0.40625 -1.34375q0.40625 -0.625 1.1875 -0.953125q0.796875 -0.328125 1.765625 -0.328125q1.046875 0 1.859375 0.34375q0.8125 0.34375 1.25 1.015625q0.4375 0.65625 0.46875 1.484375l-1.203125 0.09375q-0.109375 -0.90625 -0.671875 -1.359375q-0.5625 -0.46875 -1.65625 -0.46875q-1.140625 0 -1.671875 0.421875q-0.515625 0.421875 -0.515625 1.015625q0 0.515625 0.359375 0.84375q0.375 0.328125 1.90625 0.6875q1.546875 0.34375 2.109375 0.59375q0.84375 0.390625 1.234375 0.984375q0.390625 0.578125 0.390625 1.359375q0 0.75 -0.4375 1.4375q-0.421875 0.671875 -1.25 1.046875q-0.8125 0.359375 -1.828125 0.359375q-1.296875 0 -2.171875 -0.375q-0.875 -0.375 -1.375 -1.125q-0.5 -0.765625 -0.53125 -1.71875zm8.889755 0l1.203125 -0.109375q0.078125 0.71875 0.390625 1.1875q0.3125 0.453125 0.953125 0.734375q0.65625 0.28125 1.46875 0.28125q0.71875 0 1.265625 -0.21875q0.5625 -0.21875 0.828125 -0.578125q0.265625 -0.375 0.265625 -0.828125q0 -0.453125 -0.265625 -0.78125q-0.25 -0.328125 -0.84375 -0.5625q-0.390625 -0.15625 -1.703125 -0.46875q-1.3125 -0.3125 -1.84375 -0.59375q-0.671875 -0.359375 -1.015625 -0.890625q-0.328125 -0.53125 -0.328125 -1.1875q0 -0.71875 0.40625 -1.34375q0.40625 -0.625 1.1875 -0.953125q0.796875 -0.328125 1.765625 -0.328125q1.046875 0 1.859375 0.34375q0.8125 0.34375 1.25 1.015625q0.4375 0.65625 0.46875 1.484375l-1.203125 0.09375q-0.109375 -0.90625 -0.671875 -1.359375q-0.5625 -0.46875 -1.65625 -0.46875q-1.140625 0 -1.671875 0.421875q-0.515625 0.421875 -0.515625 1.015625q0 0.515625 0.359375 0.84375q0.375 0.328125 1.90625 0.6875q1.546875 0.34375 2.109375 0.59375q0.84375 0.390625 1.234375 0.984375q0.390625 0.578125 0.390625 1.359375q0 0.75 -0.4375 1.4375q-0.421875 0.671875 -1.25 1.046875q-0.8125 0.359375 -1.828125 0.359375q-1.296875 0 -2.171875 -0.375q-0.875 -0.375 -1.375 -1.125q-0.5 -0.765625 -0.53125 -1.71875zm9.3272705 3.0625l0 -9.546875l3.28125 0q1.109375 0 1.703125 0.140625q0.8125 0.1875 1.390625 0.6875q0.765625 0.640625 1.140625 1.640625q0.375 0.984375 0.375 2.25q0 1.09375 -0.265625 1.9375q-0.25 0.828125 -0.65625 1.390625q-0.390625 0.546875 -0.859375 0.859375q-0.46875 0.3125 -1.140625 0.484375q-0.65625 0.15625 -1.53125 0.15625l-3.4375 0zm1.265625 -1.125l2.03125 0q0.9375 0 1.46875 -0.171875q0.546875 -0.1875 0.875 -0.5q0.4375 -0.453125 0.6875 -1.203125q0.25 -0.765625 0.25 -1.84375q0 -1.5 -0.5 -2.296875q-0.484375 -0.8125 -1.1875 -1.078125q-0.5 -0.203125 -1.625 -0.203125l-2.0 0l0 7.296875zm7.7501526 -1.734375l0 -1.1875l3.59375 0l0 1.1875l-3.59375 0zm5.0633545 2.859375l0 -9.546875l4.234375 0q1.265625 0 1.921875 0.265625q0.671875 0.25 1.0625 0.90625q0.40625 0.65625 0.40625 1.4375q0 1.015625 -0.65625 1.71875q-0.65625 0.6875 -2.03125 0.875q0.5 0.25 0.765625 0.484375q0.546875 0.5 1.046875 1.265625l1.65625 2.59375l-1.578125 0l-1.265625 -1.984375q-0.5625 -0.859375 -0.921875 -1.3125q-0.34375 -0.453125 -0.640625 -0.640625q-0.28125 -0.1875 -0.5625 -0.25q-0.21875 -0.046875 -0.703125 -0.046875l-1.46875 0l0 4.234375l-1.265625 0zm1.265625 -5.328125l2.71875 0q0.859375 0 1.34375 -0.171875q0.484375 -0.1875 0.734375 -0.578125q0.265625 -0.390625 0.265625 -0.859375q0 -0.671875 -0.5 -1.109375q-0.484375 -0.4375 -1.546875 -0.4375l-3.015625 0l0 3.15625zm12.922028 3.109375l1.203125 0.140625q-0.28125 1.0625 -1.0625 1.65625q-0.765625 0.578125 -1.96875 0.578125q-1.515625 0 -2.40625 -0.9375q-0.890625 -0.9375 -0.890625 -2.609375q0 -1.75 0.890625 -2.703125q0.90625 -0.96875 2.34375 -0.96875q1.390625 0 2.265625 0.9375q0.875 0.9375 0.875 2.65625q0 0.109375 0 0.3125l-5.15625 0q0.0625 1.140625 0.640625 1.75q0.578125 0.59375 1.4375 0.59375q0.65625 0 1.109375 -0.328125q0.453125 -0.34375 0.71875 -1.078125zm-3.84375 -1.90625l3.859375 0q-0.078125 -0.859375 -0.4375 -1.296875q-0.5625 -0.6875 -1.453125 -0.6875q-0.8125 0 -1.359375 0.546875q-0.546875 0.53125 -0.609375 1.4375zm6.0531006 2.0625l1.15625 -0.1875q0.109375 0.703125 0.546875 1.078125q0.453125 0.359375 1.25 0.359375q0.8125 0 1.203125 -0.328125q0.390625 -0.328125 0.390625 -0.765625q0 -0.390625 -0.359375 -0.625q-0.234375 -0.15625 -1.1875 -0.390625q-1.296875 -0.328125 -1.796875 -0.5625q-0.484375 -0.25 -0.75 -0.65625q-0.25 -0.421875 -0.25 -0.9375q0 -0.453125 0.203125 -0.84375q0.21875 -0.40625 0.578125 -0.671875q0.28125 -0.1875 0.75 -0.328125q0.46875 -0.140625 1.015625 -0.140625q0.8125 0 1.421875 0.234375q0.609375 0.234375 0.90625 0.640625q0.296875 0.390625 0.40625 1.0625l-1.140625 0.15625q-0.078125 -0.53125 -0.453125 -0.828125q-0.375 -0.3125 -1.0625 -0.3125q-0.8125 0 -1.15625 0.265625q-0.34375 0.265625 -0.34375 0.625q0 0.234375 0.140625 0.421875q0.15625 0.1875 0.453125 0.3125q0.171875 0.0625 1.03125 0.296875q1.25 0.328125 1.734375 0.546875q0.5 0.203125 0.78125 0.609375q0.28125 0.40625 0.28125 1.0q0 0.59375 -0.34375 1.109375q-0.34375 0.515625 -1.0 0.796875q-0.640625 0.28125 -1.453125 0.28125q-1.34375 0 -2.046875 -0.5625q-0.703125 -0.5625 -0.90625 -1.65625zm7.2734375 2.0625l0 -9.546875l1.296875 0l5.015625 7.5l0 -7.5l1.203125 0l0 9.546875l-1.296875 0l-5.015625 -7.5l0 7.5l-1.203125 0z" fill-rule="nonzero"/><path fill="#000000" d="m253.14442 167.50777l1.203125 0.140625q-0.28125 1.0625 -1.0625 1.65625q-0.765625 0.578125 -1.96875 0.578125q-1.515625 0 -2.40625 -0.9375q-0.890625 -0.9375 -0.890625 -2.609375q0 -1.75 0.890625 -2.703125q0.90625 -0.96875 2.34375 -0.96875q1.390625 0 2.265625 0.9375q0.875 0.9375 0.875 2.65625q0 0.109375 0 0.3125l-5.15625 0q0.0625 1.140625 0.640625 1.75q0.578125 0.59375 1.4375 0.59375q0.65625 0 1.109375 -0.328125q0.453125 -0.34375 0.71875 -1.078125zm-3.84375 -1.90625l3.859375 0q-0.078125 -0.859375 -0.4375 -1.296875q-0.5625 -0.6875 -1.453125 -0.6875q-0.8125 0 -1.359375 0.546875q-0.546875 0.53125 -0.609375 1.4375zm9.084366 3.078125l0.171875 1.03125q-0.5 0.109375 -0.890625 0.109375q-0.640625 0 -1.0 -0.203125q-0.34375 -0.203125 -0.484375 -0.53125q-0.140625 -0.328125 -0.140625 -1.390625l0 -3.96875l-0.85939026 0l0 -0.90625l0.85939026 0l0 -1.71875l1.171875 -0.703125l0 2.421875l1.171875 0l0 0.90625l-1.171875 0l0 4.046875q0 0.5 0.046875 0.640625q0.0625 0.140625 0.203125 0.234375q0.140625 0.078125 0.40625 0.078125q0.203125 0 0.515625 -0.046875zm0.8123474 -1.453125l1.234375 -0.109375q0.140625 0.90625 0.640625 1.359375q0.5 0.453125 1.203125 0.453125q0.84375 0 1.421875 -0.640625q0.59375 -0.640625 0.59375 -1.6875q0 -1.0 -0.5625 -1.578125q-0.5625 -0.59375 -1.484375 -0.59375q-0.5625 0 -1.015625 0.265625q-0.453125 0.25 -0.71875 0.671875l-1.09375 -0.15625l0.921875 -4.890625l4.75 0l0 1.109375l-3.8125 0l-0.515625 2.5625q0.859375 -0.59375 1.796875 -0.59375q1.25 0 2.109375 0.875q0.859375 0.859375 0.859375 2.21875q0 1.296875 -0.75 2.234375q-0.921875 1.15625 -2.5 1.15625q-1.3125 0 -2.140625 -0.71875q-0.8125 -0.734375 -0.9375 -1.9375zm7.4124756 -2.203125q0 -1.6875 0.34375 -2.71875q0.359375 -1.03125 1.046875 -1.59375q0.6875 -0.5625 1.71875 -0.5625q0.78125 0 1.359375 0.3125q0.578125 0.296875 0.953125 0.890625q0.375 0.578125 0.59375 1.421875q0.21875 0.828125 0.21875 2.25q0 1.671875 -0.359375 2.703125q-0.34375 1.03125 -1.03125 1.59375q-0.671875 0.5625 -1.734375 0.5625q-1.375 0 -2.15625 -0.984375q-0.953125 -1.1875 -0.953125 -3.875zm1.203125 0q0 2.34375 0.546875 3.125q0.5625 0.78125 1.359375 0.78125q0.8125 0 1.359375 -0.78125q0.5625 -0.78125 0.5625 -3.125q0 -2.359375 -0.5625 -3.125q-0.546875 -0.78125 -1.359375 -0.78125q-0.8125 0 -1.296875 0.6875q-0.609375 0.875 -0.609375 3.21875zm12.1623535 4.703125l-2.625 -6.90625l1.234375 0l1.484375 4.140625q0.234375 0.65625 0.4375 1.390625q0.15625 -0.546875 0.4375 -1.3125l1.53125 -4.21875l1.21875 0l-2.625 6.90625l-1.09375 0zm8.8359375 0l-1.171875 0l0 -7.46875q-0.421875 0.40625 -1.109375 0.8125q-0.6875 0.40625 -1.234375 0.609375l0 -1.140625q0.984375 -0.453125 1.71875 -1.109375q0.734375 -0.671875 1.03125 -1.28125l0.765625 0l0 9.578125zm3.6468506 0l0 -1.328125l1.34375 0l0 1.328125l-1.34375 0zm3.0467224 -2.5l1.234375 -0.109375q0.140625 0.90625 0.640625 1.359375q0.5 0.453125 1.203125 0.453125q0.84375 0 1.421875 -0.640625q0.59375 -0.640625 0.59375 -1.6875q0 -1.0 -0.5625 -1.578125q-0.5625 -0.59375 -1.484375 -0.59375q-0.5625 0 -1.015625 0.265625q-0.453125 0.25 -0.71875 0.671875l-1.09375 -0.15625l0.921875 -4.890625l4.75 0l0 1.109375l-3.8125 0l-0.515625 2.5625q0.859375 -0.59375 1.796875 -0.59375q1.25 0 2.109375 0.875q0.859375 0.859375 0.859375 2.21875q0 1.296875 -0.75 2.234375q-0.921875 1.15625 -2.5 1.15625q-1.3125 0 -2.140625 -0.71875q-0.8125 -0.734375 -0.9375 -1.9375z" fill-rule="nonzero"/><path fill="#d9d9d9" d="m230.79527 196.22835l88.31496 0l0 76.598434l-88.31496 0z" fill-rule="evenodd"/><path stroke="#000000" stroke-width="1.0" stroke-linejoin="round" stroke-linecap="butt" d="m230.79527 196.22835l88.31496 0l0 76.598434l-88.31496 0z" fill-rule="evenodd"/><path fill="#000000" d="m254.3512 230.88756l0 -11.453125l2.28125 0l2.71875 8.109375q0.375 1.125 0.546875 1.6875q0.1875 -0.625 0.609375 -1.828125l2.734375 -7.96875l2.046875 0l0 11.453125l-1.46875 0l0 -9.59375l-3.328125 9.59375l-1.359375 0l-3.3125 -9.75l0 9.75l-1.46875 0zm12.671875 -4.15625q0 -2.296875 1.28125 -3.40625q1.078125 -0.921875 2.609375 -0.921875q1.71875 0 2.796875 1.125q1.09375 1.109375 1.09375 3.09375q0 1.59375 -0.484375 2.515625q-0.484375 0.921875 -1.40625 1.4375q-0.90625 0.5 -2.0 0.5q-1.734375 0 -2.8125 -1.109375q-1.078125 -1.125 -1.078125 -3.234375zm1.453125 0q0 1.59375 0.6875 2.390625q0.703125 0.796875 1.75 0.796875q1.046875 0 1.734375 -0.796875q0.703125 -0.796875 0.703125 -2.4375q0 -1.53125 -0.703125 -2.328125q-0.6875 -0.796875 -1.734375 -0.796875q-1.046875 0 -1.75 0.796875q-0.6875 0.78125 -0.6875 2.375zm13.3515625 4.15625l0 -1.046875q-0.78125 1.234375 -2.3125 1.234375q-1.0 0 -1.828125 -0.546875q-0.828125 -0.546875 -1.296875 -1.53125q-0.453125 -0.984375 -0.453125 -2.25q0 -1.25 0.40625 -2.25q0.421875 -1.015625 1.25 -1.546875q0.828125 -0.546875 1.859375 -0.546875q0.75 0 1.328125 0.3125q0.59375 0.3125 0.953125 0.828125l0 -4.109375l1.40625 0l0 11.453125l-1.3125 0zm-4.4375 -4.140625q0 1.59375 0.671875 2.390625q0.671875 0.78125 1.578125 0.78125q0.921875 0 1.5625 -0.75q0.65625 -0.765625 0.65625 -2.3125q0 -1.703125 -0.65625 -2.5q-0.65625 -0.796875 -1.625 -0.796875q-0.9375 0 -1.5625 0.765625q-0.625 0.765625 -0.625 2.421875zm13.6328125 1.46875l1.453125 0.171875q-0.34375 1.28125 -1.28125 1.984375q-0.921875 0.703125 -2.359375 0.703125q-1.828125 0 -2.890625 -1.125q-1.0625 -1.125 -1.0625 -3.140625q0 -2.09375 1.078125 -3.25q1.078125 -1.15625 2.796875 -1.15625q1.65625 0 2.703125 1.140625q1.0625 1.125 1.0625 3.171875q0 0.125 0 0.375l-6.1875 0q0.078125 1.375 0.765625 2.109375q0.703125 0.71875 1.734375 0.71875q0.78125 0 1.328125 -0.40625q0.546875 -0.40625 0.859375 -1.296875zm-4.609375 -2.28125l4.625 0q-0.09375 -1.046875 -0.53125 -1.5625q-0.671875 -0.8125 -1.734375 -0.8125q-0.96875 0 -1.640625 0.65625q-0.65625 0.640625 -0.71875 1.71875zm7.8046875 4.953125l0 -11.453125l1.40625 0l0 11.453125l-1.40625 0z" fill-rule="nonzero"/><path fill="#000000" d="m246.42932 249.88756l0 -11.453125l5.078125 0q1.53125 0 2.328125 0.3125q0.796875 0.296875 1.265625 1.078125q0.484375 0.78125 0.484375 1.734375q0 1.21875 -0.796875 2.0625q-0.78125 0.828125 -2.4375 1.046875q0.609375 0.296875 0.921875 0.578125q0.65625 0.609375 1.25 1.515625l2.0 3.125l-1.90625 0l-1.515625 -2.390625q-0.671875 -1.03125 -1.109375 -1.578125q-0.421875 -0.546875 -0.765625 -0.765625q-0.328125 -0.21875 -0.6875 -0.296875q-0.25 -0.0625 -0.84375 -0.0625l-1.75 0l0 5.09375l-1.515625 0zm1.515625 -6.40625l3.25 0q1.046875 0 1.625 -0.203125q0.59375 -0.21875 0.890625 -0.6875q0.3125 -0.484375 0.3125 -1.03125q0 -0.8125 -0.59375 -1.328125q-0.59375 -0.53125 -1.859375 -0.53125l-3.625 0l0 3.78125zm15.2734375 6.40625l0 -1.21875q-0.96875 1.40625 -2.640625 1.40625q-0.734375 0 -1.375 -0.28125q-0.625 -0.28125 -0.9375 -0.703125q-0.3125 -0.4375 -0.4375 -1.046875q-0.078125 -0.421875 -0.078125 -1.3125l0 -5.140625l1.40625 0l0 4.59375q0 1.109375 0.078125 1.484375q0.140625 0.5625 0.5625 0.875q0.4375 0.3125 1.0625 0.3125q0.640625 0 1.1875 -0.3125q0.5625 -0.328125 0.78125 -0.890625q0.234375 -0.5625 0.234375 -1.625l0 -4.4375l1.40625 0l0 8.296875l-1.25 0zm3.4609375 0l0 -8.296875l1.265625 0l0 1.171875q0.90625 -1.359375 2.640625 -1.359375q0.75 0 1.375 0.265625q0.625 0.265625 0.9375 0.703125q0.3125 0.4375 0.4375 1.046875q0.078125 0.390625 0.078125 1.359375l0 5.109375l-1.40625 0l0 -5.046875q0 -0.859375 -0.171875 -1.28125q-0.15625 -0.4375 -0.578125 -0.6875q-0.40625 -0.25 -0.96875 -0.25q-0.90625 0 -1.5625 0.578125q-0.640625 0.5625 -0.640625 2.15625l0 4.53125l-1.40625 0zm11.9609375 -1.265625l0.203125 1.25q-0.59375 0.125 -1.0625 0.125q-0.765625 0 -1.1875 -0.234375q-0.421875 -0.25 -0.59375 -0.640625q-0.171875 -0.40625 -0.171875 -1.671875l0 -4.765625l-1.03125 0l0 -1.09375l1.03125 0l0 -2.0625l1.40625 -0.84375l0 2.90625l1.40625 0l0 1.09375l-1.40625 0l0 4.84375q0 0.609375 0.0625 0.78125q0.078125 0.171875 0.25 0.28125q0.171875 0.09375 0.484375 0.09375q0.234375 0 0.609375 -0.0625zm1.3828125 -8.578125l0 -1.609375l1.40625 0l0 1.609375l-1.40625 0zm0 9.84375l0 -8.296875l1.40625 0l0 8.296875l-1.40625 0zm3.5546875 0l0 -8.296875l1.25 0l0 1.15625q0.390625 -0.609375 1.03125 -0.96875q0.65625 -0.375 1.484375 -0.375q0.921875 0 1.515625 0.390625q0.59375 0.375 0.828125 1.0625q0.984375 -1.453125 2.5625 -1.453125q1.234375 0 1.890625 0.6875q0.671875 0.671875 0.671875 2.09375l0 5.703125l-1.390625 0l0 -5.234375q0 -0.84375 -0.140625 -1.203125q-0.140625 -0.375 -0.5 -0.59375q-0.359375 -0.234375 -0.84375 -0.234375q-0.875 0 -1.453125 0.578125q-0.578125 0.578125 -0.578125 1.859375l0 4.828125l-1.40625 0l0 -5.390625q0 -0.9375 -0.34375 -1.40625q-0.34375 -0.46875 -1.125 -0.46875q-0.59375 0 -1.09375 0.3125q-0.5 0.3125 -0.734375 0.921875q-0.21875 0.59375 -0.21875 1.71875l0 4.3125l-1.40625 0zm19.0 -2.671875l1.453125 0.171875q-0.34375 1.28125 -1.28125 1.984375q-0.921875 0.703125 -2.359375 0.703125q-1.828125 0 -2.890625 -1.125q-1.0625 -1.125 -1.0625 -3.140625q0 -2.09375 1.078125 -3.25q1.078125 -1.15625 2.796875 -1.15625q1.65625 0 2.703125 1.140625q1.0625 1.125 1.0625 3.171875q0 0.125 0 0.375l-6.1875 0q0.078125 1.375 0.765625 2.109375q0.703125 0.71875 1.734375 0.71875q0.78125 0 1.328125 -0.40625q0.546875 -0.40625 0.859375 -1.296875zm-4.609375 -2.28125l4.625 0q-0.09375 -1.046875 -0.53125 -1.5625q-0.671875 -0.8125 -1.734375 -0.8125q-0.96875 0 -1.640625 0.65625q-0.65625 0.640625 -0.71875 1.71875z" fill-rule="nonzero"/><path fill="#6fa8dc" d="m4.64042 121.44226l0 0c0 5.972931 19.368092 10.814957 43.259842 10.814957c23.891754 0 43.259842 -4.8420258 43.259842 -10.814957l0 79.28346c0 5.972931 -19.368088 10.814957 -43.259842 10.814957c-23.89175 0 -43.259842 -4.8420258 -43.259842 -10.814957z" fill-rule="evenodd"/><path fill="#a8caea" d="m4.64042 121.44226l0 0c0 -5.9729385 19.368092 -10.814964 43.259842 -10.814964c23.891754 0 43.259842 4.8420258 43.259842 10.814964l0 0c0 5.972931 -19.368088 10.814957 -43.259842 10.814957c-23.89175 0 -43.259842 -4.8420258 -43.259842 -10.814957z" fill-rule="evenodd"/><path fill="#000000" fill-opacity="0.0" d="m91.1601 121.44226l0 0c0 5.972931 -19.368088 10.814957 -43.259842 10.814957c-23.89175 0 -43.259842 -4.8420258 -43.259842 -10.814957l0 0c0 -5.9729385 19.368092 -10.814964 43.259842 -10.814964c23.891754 0 43.259842 4.8420258 43.259842 10.814964l0 79.28346c0 5.972931 -19.368088 10.814957 -43.259842 10.814957c-23.89175 0 -43.259842 -4.8420258 -43.259842 -10.814957l0 -79.28346" fill-rule="evenodd"/><path stroke="#000000" stroke-width="1.0" stroke-linejoin="round" stroke-linecap="butt" d="m91.1601 121.44226l0 0c0 5.972931 -19.368088 10.814957 -43.259842 10.814957c-23.89175 0 -43.259842 -4.8420258 -43.259842 -10.814957l0 0c0 -5.9729385 19.368092 -10.814964 43.259842 -10.814964c23.891754 0 43.259842 4.8420258 43.259842 10.814964l0 79.28346c0 5.972931 -19.368088 10.814957 -43.259842 10.814957c-23.89175 0 -43.259842 -4.8420258 -43.259842 -10.814957l0 -79.28346" fill-rule="evenodd"/><path fill="#000000" d="m24.61901 153.35147l0 -11.453125l1.515625 0l0 5.671875l5.6875 -5.671875l2.0625 0l-4.8125 4.640625l5.015625 6.8125l-2.0 0l-4.078125 -5.796875l-1.875 1.828125l0 3.96875l-1.515625 0zm10.734375 0l0 -11.453125l4.328125 0q1.140625 0 1.734375 0.109375q0.84375 0.140625 1.40625 0.53125q0.578125 0.390625 0.921875 1.109375q0.359375 0.703125 0.359375 1.5625q0 1.453125 -0.9375 2.46875q-0.921875 1.015625 -3.359375 1.015625l-2.9375 0l0 4.65625l-1.515625 0zm1.515625 -6.015625l2.96875 0q1.46875 0 2.078125 -0.546875q0.625 -0.546875 0.625 -1.53125q0 -0.71875 -0.375 -1.234375q-0.359375 -0.515625 -0.953125 -0.671875q-0.375 -0.109375 -1.40625 -0.109375l-2.9375 0l0 4.09375zm9.421875 6.015625l0 -11.453125l1.515625 0l0 11.453125l-1.515625 0zm3.4453125 -2.484375l1.390625 -0.21875q0.109375 0.84375 0.640625 1.296875q0.546875 0.4375 1.5 0.4375q0.96875 0 1.4375 -0.390625q0.46875 -0.40625 0.46875 -0.9375q0 -0.46875 -0.40625 -0.75q-0.296875 -0.1875 -1.4375 -0.46875q-1.546875 -0.390625 -2.15625 -0.671875q-0.59375 -0.296875 -0.90625 -0.796875q-0.296875 -0.5 -0.296875 -1.109375q0 -0.5625 0.25 -1.03125q0.25 -0.46875 0.6875 -0.78125q0.328125 -0.25 0.890625 -0.40625q0.578125 -0.171875 1.21875 -0.171875q0.984375 0 1.71875 0.28125q0.734375 0.28125 1.078125 0.765625q0.359375 0.46875 0.5 1.28125l-1.375 0.1875q-0.09375 -0.640625 -0.546875 -1.0q-0.453125 -0.359375 -1.265625 -0.359375q-0.96875 0 -1.390625 0.328125q-0.40625 0.3125 -0.40625 0.734375q0 0.28125 0.171875 0.5q0.171875 0.21875 0.53125 0.375q0.21875 0.078125 1.25 0.359375q1.484375 0.390625 2.078125 0.65625q0.59375 0.25 0.921875 0.734375q0.34375 0.484375 0.34375 1.203125q0 0.703125 -0.421875 1.328125q-0.40625 0.609375 -1.1875 0.953125q-0.765625 0.34375 -1.734375 0.34375q-1.625 0 -2.46875 -0.671875q-0.84375 -0.671875 -1.078125 -2.0zm19.554688 1.125q-0.703125 0.78125 -1.53125 1.171875q-0.8125 0.390625 -1.765625 0.390625q-1.75 0 -2.78125 -1.203125q-0.84375 -0.96875 -0.84375 -2.15625q0 -1.0625 0.6875 -1.921875q0.6875 -0.859375 2.046875 -1.5q-0.78125 -0.890625 -1.046875 -1.4375q-0.25 -0.5625 -0.25 -1.078125q0 -1.03125 0.8125 -1.796875q0.8125 -0.765625 2.03125 -0.765625q1.171875 0 1.921875 0.71875q0.75 0.71875 0.75 1.734375q0 1.625 -2.171875 2.78125l2.0625 2.625q0.34375 -0.6875 0.546875 -1.59375l1.453125 0.3125q-0.375 1.5 -1.015625 2.46875q0.796875 1.046875 1.796875 1.75l-0.953125 1.125q-0.84375 -0.546875 -1.75 -1.625zm-2.859375 -5.96875q0.90625 -0.53125 1.171875 -0.9375q0.28125 -0.40625 0.28125 -0.90625q0 -0.578125 -0.375 -0.953125q-0.375 -0.375 -0.921875 -0.375q-0.578125 0 -0.953125 0.375q-0.375 0.359375 -0.375 0.890625q0 0.265625 0.125 0.5625q0.140625 0.296875 0.421875 0.625l0.625 0.71875zm1.96875 4.859375l-2.578125 -3.1875q-1.140625 0.671875 -1.546875 1.265625q-0.390625 0.578125 -0.390625 1.140625q0 0.703125 0.546875 1.453125q0.5625 0.75 1.578125 0.75q0.640625 0 1.3125 -0.390625q0.671875 -0.40625 1.078125 -1.03125z" fill-rule="nonzero"/><path fill="#000000" d="m20.59948 172.35147l0 -11.453125l1.515625 0l0 10.09375l5.640625 0l0 1.359375l-7.15625 0zm14.1953125 -1.03125q-0.78125 0.671875 -1.5 0.953125q-0.71875 0.265625 -1.546875 0.265625q-1.375 0 -2.109375 -0.671875q-0.734375 -0.671875 -0.734375 -1.703125q0 -0.609375 0.28125 -1.109375q0.28125 -0.515625 0.71875 -0.8125q0.453125 -0.3125 1.015625 -0.46875q0.421875 -0.109375 1.25 -0.203125q1.703125 -0.203125 2.515625 -0.484375q0 -0.296875 0 -0.375q0 -0.859375 -0.390625 -1.203125q-0.546875 -0.484375 -1.609375 -0.484375q-0.984375 0 -1.46875 0.359375q-0.46875 0.34375 -0.6875 1.21875l-1.375 -0.1875q0.1875 -0.875 0.609375 -1.421875q0.4375 -0.546875 1.25 -0.828125q0.8125 -0.296875 1.875 -0.296875q1.0625 0 1.71875 0.25q0.671875 0.25 0.984375 0.625q0.3125 0.375 0.4375 0.953125q0.078125 0.359375 0.078125 1.296875l0 1.875q0 1.96875 0.078125 2.484375q0.09375 0.515625 0.359375 1.0l-1.46875 0q-0.21875 -0.4375 -0.28125 -1.03125zm-0.109375 -3.140625q-0.765625 0.3125 -2.296875 0.53125q-0.875 0.125 -1.234375 0.28125q-0.359375 0.15625 -0.5625 0.46875q-0.1875 0.296875 -0.1875 0.65625q0 0.5625 0.421875 0.9375q0.4375 0.375 1.25 0.375q0.8125 0 1.4375 -0.34375q0.640625 -0.359375 0.9375 -0.984375q0.234375 -0.46875 0.234375 -1.40625l0 -0.515625zm4.8984375 4.171875l-1.3125 0l0 -11.453125l1.40625 0l0 4.078125q0.890625 -1.109375 2.28125 -1.109375q0.765625 0 1.4375 0.3125q0.6875 0.296875 1.125 0.859375q0.453125 0.5625 0.703125 1.359375q0.25 0.78125 0.25 1.671875q0 2.140625 -1.0625 3.3125q-1.046875 1.15625 -2.53125 1.15625q-1.46875 0 -2.296875 -1.234375l0 1.046875zm-0.015625 -4.21875q0 1.5 0.40625 2.15625q0.65625 1.09375 1.796875 1.09375q0.921875 0 1.59375 -0.796875q0.671875 -0.8125 0.671875 -2.390625q0 -1.625 -0.65625 -2.390625q-0.640625 -0.78125 -1.546875 -0.78125q-0.921875 0 -1.59375 0.796875q-0.671875 0.796875 -0.671875 2.3125zm13.2890625 1.546875l1.453125 0.171875q-0.34375 1.28125 -1.28125 1.984375q-0.921875 0.703125 -2.359375 0.703125q-1.828125 0 -2.890625 -1.125q-1.0625 -1.125 -1.0625 -3.140625q0 -2.09375 1.078125 -3.25q1.078125 -1.15625 2.796875 -1.15625q1.65625 0 2.703125 1.140625q1.0625 1.125 1.0625 3.171875q0 0.125 0 0.375l-6.1875 0q0.078125 1.375 0.765625 2.109375q0.703125 0.71875 1.734375 0.71875q0.78125 0 1.328125 -0.40625q0.546875 -0.40625 0.859375 -1.296875zm-4.609375 -2.28125l4.625 0q-0.09375 -1.046875 -0.53125 -1.5625q-0.671875 -0.8125 -1.734375 -0.8125q-0.96875 0 -1.640625 0.65625q-0.65625 0.640625 -0.71875 1.71875zm7.8046875 4.953125l0 -11.453125l1.40625 0l0 11.453125l-1.40625 0zm9.2578125 -2.671875l1.453125 0.171875q-0.34375 1.28125 -1.28125 1.984375q-0.921875 0.703125 -2.359375 0.703125q-1.828125 0 -2.890625 -1.125q-1.0625 -1.125 -1.0625 -3.140625q0 -2.09375 1.078125 -3.25q1.078125 -1.15625 2.796875 -1.15625q1.65625 0 2.703125 1.140625q1.0625 1.125 1.0625 3.171875q0 0.125 0 0.375l-6.1875 0q0.078125 1.375 0.765625 2.109375q0.703125 0.71875 1.734375 0.71875q0.78125 0 1.328125 -0.40625q0.546875 -0.40625 0.859375 -1.296875zm-4.609375 -2.28125l4.625 0q-0.09375 -1.046875 -0.53125 -1.5625q-0.671875 -0.8125 -1.734375 -0.8125q-0.96875 0 -1.640625 0.65625q-0.65625 0.640625 -0.71875 1.71875zm13.2109375 4.953125l0 -1.046875q-0.78125 1.234375 -2.3125 1.234375q-1.0 0 -1.828125 -0.546875q-0.828125 -0.546875 -1.296875 -1.53125q-0.453125 -0.984375 -0.453125 -2.25q0 -1.25 0.40625 -2.25q0.421875 -1.015625 1.25 -1.546875q0.828125 -0.546875 1.859375 -0.546875q0.75 0 1.328125 0.3125q0.59375 0.3125 0.953125 0.828125l0 -4.109375l1.40625 0l0 11.453125l-1.3125 0zm-4.4375 -4.140625q0 1.59375 0.671875 2.390625q0.671875 0.78125 1.578125 0.78125q0.921875 0 1.5625 -0.75q0.65625 -0.765625 0.65625 -2.3125q0 -1.703125 -0.65625 -2.5q-0.65625 -0.796875 -1.625 -0.796875q-0.9375 0 -1.5625 0.765625q-0.625 0.765625 -0.625 2.421875z" fill-rule="nonzero"/><path fill="#000000" d="m22.09948 191.35147l0 -11.453125l7.734375 0l0 1.34375l-6.21875 0l0 3.546875l5.375 0l0 1.359375l-5.375 0l0 5.203125l-1.515625 0zm9.5078125 0l0 -8.296875l1.265625 0l0 1.25q0.484375 -0.875 0.890625 -1.15625q0.40625 -0.28125 0.90625 -0.28125q0.703125 0 1.4375 0.453125l-0.484375 1.296875q-0.515625 -0.296875 -1.03125 -0.296875q-0.453125 0 -0.828125 0.28125q-0.359375 0.265625 -0.515625 0.765625q-0.234375 0.75 -0.234375 1.640625l0 4.34375l-1.40625 0zm10.75 -1.03125q-0.78125 0.671875 -1.5 0.953125q-0.71875 0.265625 -1.546875 0.265625q-1.375 0 -2.109375 -0.671875q-0.734375 -0.671875 -0.734375 -1.703125q0 -0.609375 0.28125 -1.109375q0.28125 -0.515625 0.71875 -0.8125q0.453125 -0.3125 1.015625 -0.46875q0.421875 -0.109375 1.25 -0.203125q1.703125 -0.203125 2.515625 -0.484375q0 -0.296875 0 -0.375q0 -0.859375 -0.390625 -1.203125q-0.546875 -0.484375 -1.609375 -0.484375q-0.984375 0 -1.46875 0.359375q-0.46875 0.34375 -0.6875 1.21875l-1.375 -0.1875q0.1875 -0.875 0.609375 -1.421875q0.4375 -0.546875 1.25 -0.828125q0.8125 -0.296875 1.875 -0.296875q1.0625 0 1.71875 0.25q0.671875 0.25 0.984375 0.625q0.3125 0.375 0.4375 0.953125q0.078125 0.359375 0.078125 1.296875l0 1.875q0 1.96875 0.078125 2.484375q0.09375 0.515625 0.359375 1.0l-1.46875 0q-0.21875 -0.4375 -0.28125 -1.03125zm-0.109375 -3.140625q-0.765625 0.3125 -2.296875 0.53125q-0.875 0.125 -1.234375 0.28125q-0.359375 0.15625 -0.5625 0.46875q-0.1875 0.296875 -0.1875 0.65625q0 0.5625 0.421875 0.9375q0.4375 0.375 1.25 0.375q0.8125 0 1.4375 -0.34375q0.640625 -0.359375 0.9375 -0.984375q0.234375 -0.46875 0.234375 -1.40625l0 -0.515625zm3.6015625 4.171875l0 -8.296875l1.25 0l0 1.15625q0.390625 -0.609375 1.03125 -0.96875q0.65625 -0.375 1.484375 -0.375q0.921875 0 1.515625 0.390625q0.59375 0.375 0.828125 1.0625q0.984375 -1.453125 2.5625 -1.453125q1.234375 0 1.890625 0.6875q0.671875 0.671875 0.671875 2.09375l0 5.703125l-1.390625 0l0 -5.234375q0 -0.84375 -0.140625 -1.203125q-0.140625 -0.375 -0.5 -0.59375q-0.359375 -0.234375 -0.84375 -0.234375q-0.875 0 -1.453125 0.578125q-0.578125 0.578125 -0.578125 1.859375l0 4.828125l-1.40625 0l0 -5.390625q0 -0.9375 -0.34375 -1.40625q-0.34375 -0.46875 -1.125 -0.46875q-0.59375 0 -1.09375 0.3125q-0.5 0.3125 -0.734375 0.921875q-0.21875 0.59375 -0.21875 1.71875l0 4.3125l-1.40625 0zm19.0 -2.671875l1.453125 0.171875q-0.34375 1.28125 -1.28125 1.984375q-0.921875 0.703125 -2.359375 0.703125q-1.828125 0 -2.890625 -1.125q-1.0625 -1.125 -1.0625 -3.140625q0 -2.09375 1.078125 -3.25q1.078125 -1.15625 2.796875 -1.15625q1.65625 0 2.703125 1.140625q1.0625 1.125 1.0625 3.171875q0 0.125 0 0.375l-6.1875 0q0.078125 1.375 0.765625 2.109375q0.703125 0.71875 1.734375 0.71875q0.78125 0 1.328125 -0.40625q0.546875 -0.40625 0.859375 -1.296875zm-4.609375 -2.28125l4.625 0q-0.09375 -1.046875 -0.53125 -1.5625q-0.671875 -0.8125 -1.734375 -0.8125q-0.96875 0 -1.640625 0.65625q-0.65625 0.640625 -0.71875 1.71875zm7.2734375 2.46875l1.390625 -0.21875q0.109375 0.84375 0.640625 1.296875q0.546875 0.4375 1.5 0.4375q0.96875 0 1.4375 -0.390625q0.46875 -0.40625 0.46875 -0.9375q0 -0.46875 -0.40625 -0.75q-0.296875 -0.1875 -1.4375 -0.46875q-1.546875 -0.390625 -2.15625 -0.671875q-0.59375 -0.296875 -0.90625 -0.796875q-0.296875 -0.5 -0.296875 -1.109375q0 -0.5625 0.25 -1.03125q0.25 -0.46875 0.6875 -0.78125q0.328125 -0.25 0.890625 -0.40625q0.578125 -0.171875 1.21875 -0.171875q0.984375 0 1.71875 0.28125q0.734375 0.28125 1.078125 0.765625q0.359375 0.46875 0.5 1.28125l-1.375 0.1875q-0.09375 -0.640625 -0.546875 -1.0q-0.453125 -0.359375 -1.265625 -0.359375q-0.96875 0 -1.390625 0.328125q-0.40625 0.3125 -0.40625 0.734375q0 0.28125 0.171875 0.5q0.171875 0.21875 0.53125 0.375q0.21875 0.078125 1.25 0.359375q1.484375 0.390625 2.078125 0.65625q0.59375 0.25 0.921875 0.734375q0.34375 0.484375 0.34375 1.203125q0 0.703125 -0.421875 1.328125q-0.40625 0.609375 -1.1875 0.953125q-0.765625 0.34375 -1.734375 0.34375q-1.625 0 -2.46875 -0.671875q-0.84375 -0.671875 -1.078125 -2.0z" fill-rule="nonzero"/><path fill="#000000" fill-opacity="0.0" d="m2.8451443 57.805775l0 0c0 -1.7834244 0.7084627 -3.493805 1.9695339 -4.754875c1.2610717 -1.2610703 2.9714513 -1.9695358 4.754875 -1.9695358l160.55118 0c3.713791 0 6.724411 -3.01062 6.724411 -6.724407l0 0c0 3.713787 3.01062 6.724407 6.724411 6.724407l160.55118 0c3.7138062 0 6.7244263 3.01062 6.7244263 6.724411z" fill-rule="evenodd"/><path fill="#000000" fill-opacity="0.0" d="m2.8451443 57.805775l0 0c0 -1.7834244 0.7084627 -3.493805 1.9695339 -4.754875c1.2610717 -1.2610703 2.9714513 -1.9695358 4.754875 -1.9695358l160.55118 0c3.713791 0 6.724411 -3.01062 6.724411 -6.724407l0 0c0 3.713787 3.01062 6.724407 6.724411 6.724407l160.55118 0c3.7138062 0 6.7244263 3.01062 6.7244263 6.724411" fill-rule="evenodd"/><path stroke="#000000" stroke-width="1.0" stroke-linejoin="round" stroke-linecap="butt" d="m2.8451443 57.805775l0 0c0 -1.7834244 0.7084627 -3.493805 1.9695339 -4.754875c1.2610717 -1.2610703 2.9714513 -1.9695358 4.754875 -1.9695358l160.55118 0c3.713791 0 6.724411 -3.01062 6.724411 -6.724407l0 0c0 3.713787 3.01062 6.724407 6.724411 6.724407l160.55118 0c3.7138062 0 6.7244263 3.01062 6.7244263 6.724411" fill-rule="evenodd"/><path fill="#000000" fill-opacity="0.0" d="m2.8451443 2.3412073l348.0 0l0 42.01575l-348.0 0z" fill-rule="evenodd"/><path fill="#000000" d="m119.76197 29.261206l0 -13.359375l1.765625 0l0 5.484375l6.9374924 0l0 -5.484375l1.765625 0l0 13.359375l-1.765625 0l0 -6.296875l-6.9374924 0l0 6.296875l-1.765625 0zm12.597939 -4.84375q0 -2.6875 1.484375 -3.96875q1.25 -1.078125 3.046875 -1.078125q2.0 0 3.265625 1.3125q1.265625 1.296875 1.265625 3.609375q0 1.859375 -0.5625 2.9375q-0.5625 1.0625 -1.640625 1.65625q-1.0625 0.59375 -2.328125 0.59375q-2.03125 0 -3.28125 -1.296875q-1.25 -1.3125 -1.25 -3.765625zm1.6875 0q0 1.859375 0.796875 2.796875q0.8125 0.921875 2.046875 0.921875q1.21875 0 2.03125 -0.921875q0.8125 -0.9375 0.8125 -2.84375q0 -1.796875 -0.8125 -2.71875q-0.8125 -0.921875 -2.03125 -0.921875q-1.234375 0 -2.046875 0.921875q-0.796875 0.90625 -0.796875 2.765625zm8.641342 1.953125l1.625 -0.25q0.125 0.96875 0.75 1.5q0.625 0.515625 1.75 0.515625q1.125 0 1.671875 -0.453125q0.546875 -0.46875 0.546875 -1.09375q0 -0.546875 -0.484375 -0.875q-0.328125 -0.21875 -1.671875 -0.546875q-1.8125 -0.46875 -2.515625 -0.796875q-0.6875 -0.328125 -1.046875 -0.90625q-0.359375 -0.59375 -0.359375 -1.3125q0 -0.640625 0.296875 -1.1875q0.296875 -0.5625 0.8125 -0.921875q0.375 -0.28125 1.03125 -0.46875q0.671875 -0.203125 1.421875 -0.203125q1.140625 0 2.0 0.328125q0.859375 0.328125 1.265625 0.890625q0.421875 0.5625 0.578125 1.5l-1.609375 0.21875q-0.109375 -0.75 -0.640625 -1.171875q-0.515625 -0.421875 -1.46875 -0.421875q-1.140625 0 -1.625 0.375q-0.46875 0.375 -0.46875 0.875q0 0.3125 0.1875 0.578125q0.203125 0.265625 0.640625 0.4375q0.234375 0.09375 1.4375 0.421875q1.75 0.453125 2.4375 0.75q0.6875 0.296875 1.078125 0.859375q0.390625 0.5625 0.390625 1.40625q0 0.828125 -0.484375 1.546875q-0.46875 0.71875 -1.375 1.125q-0.90625 0.390625 -2.046875 0.390625q-1.875 0 -2.875 -0.78125q-0.984375 -0.78125 -1.25 -2.328125zm13.5625 1.421875l0.234375 1.453125q-0.6875 0.140625 -1.234375 0.140625q-0.890625 0 -1.390625 -0.28125q-0.484375 -0.28125 -0.6875 -0.734375q-0.203125 -0.46875 -0.203125 -1.9375l0 -5.578125l-1.203125 0l0 -1.265625l1.203125 0l0 -2.390625l1.625 -0.984375l0 3.375l1.65625 0l0 1.265625l-1.65625 0l0 5.671875q0 0.6875 0.078125 0.890625q0.09375 0.203125 0.28125 0.328125q0.203125 0.109375 0.578125 0.109375q0.265625 0 0.71875 -0.0625zm13.100983 0.28125q-0.921875 0.765625 -1.765625 1.09375q-0.828125 0.3125 -1.796875 0.3125q-1.59375 0 -2.453125 -0.78125q-0.859375 -0.78125 -0.859375 -1.984375q0 -0.71875 0.328125 -1.296875q0.328125 -0.59375 0.84375 -0.9375q0.53125 -0.359375 1.1875 -0.546875q0.46875 -0.125 1.453125 -0.25q1.984375 -0.234375 2.921875 -0.5625q0.015625 -0.34375 0.015625 -0.421875q0 -1.0 -0.46875 -1.421875q-0.625 -0.546875 -1.875 -0.546875q-1.15625 0 -1.703125 0.40625q-0.546875 0.40625 -0.8125 1.421875l-1.609375 -0.21875q0.21875 -1.015625 0.71875 -1.640625q0.5 -0.640625 1.453125 -0.984375q0.953125 -0.34375 2.1875 -0.34375q1.25 0 2.015625 0.296875q0.78125 0.28125 1.140625 0.734375q0.375 0.4375 0.515625 1.109375q0.078125 0.421875 0.078125 1.515625l0 2.1875q0 2.28125 0.109375 2.890625q0.109375 0.59375 0.40625 1.15625l-1.703125 0q-0.265625 -0.515625 -0.328125 -1.1875zm-0.140625 -3.671875q-0.890625 0.375 -2.671875 0.625q-1.015625 0.140625 -1.4375 0.328125q-0.421875 0.1875 -0.65625 0.53125q-0.21875 0.34375 -0.21875 0.78125q0 0.65625 0.5 1.09375q0.5 0.4375 1.453125 0.4375q0.9375 0 1.671875 -0.40625q0.75 -0.421875 1.09375 -1.140625q0.265625 -0.5625 0.265625 -1.640625l0 -0.609375zm4.203842 4.859375l0 -9.671875l1.46875 0l0 1.375q1.0625 -1.59375 3.078125 -1.59375q0.875 0 1.609375 0.3125q0.734375 0.3125 1.09375 0.828125q0.375 0.5 0.515625 1.203125q0.09375 0.453125 0.09375 1.59375l0 5.953125l-1.640625 0l0 -5.890625q0 -1.0 -0.203125 -1.484375q-0.1875 -0.5 -0.671875 -0.796875q-0.484375 -0.296875 -1.140625 -0.296875q-1.046875 0 -1.8125 0.671875q-0.75 0.65625 -0.75 2.515625l0 5.28125l-1.640625 0zm16.641342 0l0 -1.21875q-0.90625 1.4375 -2.703125 1.4375q-1.15625 0 -2.125 -0.640625q-0.96875 -0.640625 -1.5 -1.78125q-0.53125 -1.140625 -0.53125 -2.625q0 -1.453125 0.484375 -2.625q0.484375 -1.1875 1.4375 -1.8125q0.96875 -0.625 2.171875 -0.625q0.875 0 1.546875 0.375q0.6875 0.359375 1.109375 0.953125l0 -4.796875l1.640625 0l0 13.359375l-1.53125 0zm-5.171875 -4.828125q0 1.859375 0.78125 2.78125q0.78125 0.921875 1.84375 0.921875q1.078125 0 1.828125 -0.875q0.75 -0.890625 0.75 -2.6875q0 -1.984375 -0.765625 -2.90625q-0.765625 -0.9375 -1.890625 -0.9375q-1.078125 0 -1.8125 0.890625q-0.734375 0.890625 -0.734375 2.8125zm14.074646 0.53125l1.65625 -0.140625q0.125 1.0 0.546875 1.640625q0.4375 0.640625 1.34375 1.046875q0.921875 0.390625 2.0625 0.390625q1.0 0 1.78125 -0.296875q0.78125 -0.296875 1.15625 -0.8125q0.375 -0.53125 0.375 -1.15625q0 -0.625 -0.375 -1.09375q-0.359375 -0.46875 -1.1875 -0.796875q-0.546875 -0.203125 -2.390625 -0.640625q-1.828125 -0.453125 -2.5625 -0.84375q-0.96875 -0.5 -1.4375 -1.234375q-0.46875 -0.75 -0.46875 -1.671875q0 -1.0 0.578125 -1.875q0.578125 -0.890625 1.671875 -1.34375q1.109375 -0.453125 2.453125 -0.453125q1.484375 0 2.609375 0.484375q1.140625 0.46875 1.75 1.40625q0.609375 0.921875 0.65625 2.09375l-1.6875 0.125q-0.140625 -1.265625 -0.9375 -1.90625q-0.78125 -0.65625 -2.3125 -0.65625q-1.609375 0 -2.34375 0.59375q-0.734375 0.59375 -0.734375 1.421875q0 0.71875 0.53125 1.171875q0.5 0.46875 2.65625 0.96875q2.15625 0.484375 2.953125 0.84375q1.171875 0.53125 1.71875 1.359375q0.5625 0.828125 0.5625 1.90625q0 1.0625 -0.609375 2.015625q-0.609375 0.9375 -1.75 1.46875q-1.140625 0.515625 -2.578125 0.515625q-1.8125 0 -3.046875 -0.53125q-1.21875 -0.53125 -1.921875 -1.59375q-0.6875 -1.0625 -0.71875 -2.40625zm21.802948 -9.0625l1.765625 0l0 7.71875q0 2.015625 -0.453125 3.203125q-0.453125 1.1875 -1.640625 1.9375q-1.1875 0.734375 -3.125 0.734375q-1.875 0 -3.078125 -0.640625q-1.1875 -0.65625 -1.703125 -1.875q-0.5 -1.234375 -0.5 -3.359375l0 -7.71875l1.765625 0l0 7.71875q0 1.734375 0.3125 2.5625q0.328125 0.8125 1.109375 1.265625q0.796875 0.453125 1.9375 0.453125q1.953125 0 2.78125 -0.890625q0.828125 -0.890625 0.828125 -3.390625l0 -7.71875zm8.113571 13.359375l0 -11.78125l-4.40625 0l0 -1.578125l10.578125 0l0 1.578125l-4.40625 0l0 11.78125l-1.765625 0z" fill-rule="nonzero"/><path fill="#6fa8dc" d="m2.8451443 214.37506l88.31496 0l0 73.79529l-88.31496 0z" fill-rule="evenodd"/><path stroke="#000000" stroke-width="1.0" stroke-linejoin="round" stroke-linecap="butt" d="m2.8451443 214.37506l88.31496 0l0 73.79529l-88.31496 0z" fill-rule="evenodd"/><path fill="#000000" d="m23.844866 243.68083l1.390625 0.34375q-0.4375 1.703125 -1.578125 2.609375q-1.125 0.890625 -2.765625 0.890625q-1.6875 0 -2.75 -0.6875q-1.0625 -0.6875 -1.625 -2.0q-0.546875 -1.3125 -0.546875 -2.8125q0 -1.640625 0.625 -2.859375q0.625 -1.21875 1.78125 -1.84375q1.15625 -0.640625 2.546875 -0.640625q1.5625 0 2.640625 0.8125q1.078125 0.796875 1.5 2.25l-1.375 0.3125q-0.359375 -1.140625 -1.0625 -1.65625q-0.6875 -0.53125 -1.734375 -0.53125q-1.21875 0 -2.03125 0.578125q-0.8125 0.578125 -1.140625 1.5625q-0.328125 0.96875 -0.328125 2.015625q0 1.328125 0.390625 2.328125q0.390625 1.0 1.21875 1.5q0.828125 0.484375 1.78125 0.484375q1.171875 0 1.96875 -0.671875q0.8125 -0.671875 1.09375 -1.984375zm2.4592743 -0.125q0 -2.109375 1.171875 -3.125q0.984375 -0.84375 2.390625 -0.84375q1.578125 0 2.562502 1.03125q1.0 1.015625 1.0 2.828125q0 1.46875 -0.4375 2.3125q-0.4375 0.828125 -1.2812519 1.296875q-0.84375 0.46875 -1.84375 0.46875q-1.59375 0 -2.578125 -1.015625q-0.984375 -1.03125 -0.984375 -2.953125zm1.328125 0q0 1.453125 0.625 2.1875q0.640625 0.71875 1.609375 0.71875q0.96875 0 1.59375 -0.71875q0.6406269 -0.734375 0.6406269 -2.234375q0 -1.40625 -0.6406269 -2.125q-0.640625 -0.734375 -1.59375 -0.734375q-0.96875 0 -1.609375 0.71875q-0.625 0.71875 -0.625 2.1875zm7.2761097 3.796875l0 -10.484375l1.28125 0l0 10.484375l-1.28125 0zm3.2561493 0l0 -10.484375l1.28125 0l0 10.484375l-1.28125 0zm8.490524 -2.453125l1.328125 0.171875q-0.3125 1.171875 -1.171875 1.8125q-0.84375 0.640625 -2.171875 0.640625q-1.671875 0 -2.65625 -1.015625q-0.96875 -1.03125 -0.96875 -2.890625q0 -1.921875 0.984375 -2.96875q1.0 -1.0625 2.578125 -1.0625q1.515625 0 2.484375 1.03125q0.96875 1.03125 0.96875 2.921875q0 0.109375 -0.015625 0.34375l-5.65625 0q0.0625 1.25 0.703125 1.921875q0.640625 0.65625 1.59375 0.65625q0.703125 0 1.203125 -0.359375q0.5 -0.375 0.796875 -1.203125zm-4.234375 -2.078125l4.25 0q-0.09375 -0.953125 -0.484375 -1.4375q-0.625 -0.75 -1.609375 -0.75q-0.875 0 -1.484375 0.59375q-0.609375 0.59375 -0.671875 1.59375zm12.135483 1.75l1.265625 0.15625q-0.203125 1.3125 -1.0625 2.0625q-0.84375 0.734375 -2.09375 0.734375q-1.5625 0 -2.515625 -1.015625q-0.9375 -1.03125 -0.9375 -2.921875q0 -1.234375 0.40625 -2.15625q0.40625 -0.921875 1.234375 -1.375q0.84375 -0.46875 1.8125 -0.46875q1.25 0 2.03125 0.625q0.78125 0.625 1.015625 1.765625l-1.265625 0.203125q-0.171875 -0.765625 -0.625 -1.15625q-0.453125 -0.390625 -1.09375 -0.390625q-0.984375 0 -1.59375 0.703125q-0.609375 0.703125 -0.609375 2.203125q0 1.53125 0.578125 2.234375q0.59375 0.6875 1.546875 0.6875q0.75 0 1.265625 -0.453125q0.515625 -0.46875 0.640625 -1.4375zm5.1875 1.625l0.1875 1.140625q-0.546875 0.109375 -0.984375 0.109375q-0.6875 0 -1.078125 -0.21875q-0.390625 -0.21875 -0.546875 -0.578125q-0.15625 -0.359375 -0.15625 -1.515625l0 -4.375l-0.953125 0l0 -1.0l0.953125 0l0 -1.890625l1.28125 -0.765625l0 2.65625l1.296875 0l0 1.0l-1.296875 0l0 4.4375q0 0.546875 0.0625 0.71875q0.078125 0.15625 0.21875 0.25q0.15625 0.078125 0.453125 0.078125q0.203125 0 0.5625 -0.046875zm1.2594757 -7.859375l0 -1.46875l1.296875 0l0 1.46875l-1.296875 0zm0 9.015625l0 -7.59375l1.296875 0l0 7.59375l-1.296875 0zm5.3655205 0l-2.8906212 -7.59375l1.3593712 0l1.625 4.546875q0.265625 0.734375 0.5000076 1.53125q0.15625 -0.609375 0.46875 -1.453125l1.6875 -4.625l1.328125 0l-2.875 7.59375l-1.2031326 0zm10.421883 -2.453125l1.328125 0.171875q-0.3125 1.171875 -1.171875 1.8125q-0.84375 0.640625 -2.171875 0.640625q-1.671875 0 -2.65625 -1.015625q-0.96875 -1.03125 -0.96875 -2.890625q0 -1.921875 0.984375 -2.96875q1.0 -1.0625 2.578125 -1.0625q1.515625 0 2.484375 1.03125q0.96875 1.03125 0.96875 2.921875q0 0.109375 -0.015625 0.34375l-5.65625 0q0.0625 1.25 0.703125 1.921875q0.640625 0.65625 1.59375 0.65625q0.703125 0 1.203125 -0.359375q0.5 -0.375 0.796875 -1.203125zm-4.234375 -2.078125l4.25 0q-0.09375 -0.953125 -0.484375 -1.4375q-0.625 -0.75 -1.609375 -0.75q-0.875 0 -1.484375 0.59375q-0.609375 0.59375 -0.671875 1.59375z" fill-rule="nonzero"/><path fill="#000000" d="m13.8996525 265.3527l0 -10.48436l2.078125 0l2.484375 7.4218597q0.34375 1.03125 0.5 1.546875q0.1875 -0.5625 0.5625 -1.671875l2.515625 -7.2968597l1.859375 0l0 10.48436l-1.328125 0l0 -8.78125l-3.046875 8.78125l-1.265625 0l-3.03125 -8.9375l0 8.9375l-1.328125 0zm12.083771 -9.015625l0 -1.4687347l1.296875 0l0 1.4687347l-1.296875 0zm0 9.015625l0 -7.59375l1.296875 0l0 7.59375l-1.296875 0zm3.2561493 0l0 -7.59375l1.15625 0l0 1.078125q0.84375 -1.25 2.421877 -1.25q0.6875 0 1.265625 0.25q0.578125 0.234375 0.859375 0.640625q0.28125 0.40625 0.40625 0.953125q0.0625 0.359375 0.0625 1.25l0 4.671875l-1.28125 0l0 -4.625q0 -0.78125 -0.15625 -1.171875q-0.15625 -0.390625 -0.546875 -0.625q-0.375 -0.234375 -0.890625 -0.234375q-0.8125019 0 -1.4218769 0.53125q-0.59375 0.515625 -0.59375 1.96875l0 4.15625l-1.28125 0zm13.072985 0l0 -0.953125q-0.71875 1.125 -2.125 1.125q-0.90625 0 -1.671875 -0.5q-0.75 -0.5 -1.171875 -1.390625q-0.421875 -0.90625 -0.421875 -2.078125q0 -1.140625 0.375 -2.0625q0.390625 -0.921875 1.140625 -1.40625q0.765625 -0.5 1.703125 -0.5q0.6875 0 1.21875 0.296875q0.53125 0.28125 0.875 0.734375l0 -3.7499847l1.28125 0l0 10.48436l-1.203125 0zm-4.0625 -3.796875q0 1.46875 0.609375 2.1875q0.625 0.71875 1.453125 0.71875q0.84375 0 1.4375 -0.6875q0.59375 -0.6875 0.59375 -2.109375q0 -1.5625 -0.609375 -2.28125q-0.59375 -0.734375 -1.484375 -0.734375q-0.84375 0 -1.421875 0.703125q-0.578125 0.703125 -0.578125 2.203125zm13.8168335 6.875q-1.0625 -1.34375 -1.796875 -3.140625q-0.734375 -1.8125 -0.734375 -3.734375q0 -1.703125 0.546875 -3.265625q0.640625 -1.8125 1.984375 -3.6093597l0.921875 0q-0.859375 1.4843597 -1.140625 2.1249847q-0.4375 0.984375 -0.6875 2.0625q-0.296875 1.34375 -0.296875 2.6875q0 3.453125 2.125 6.875l-0.921875 0zm10.068146 -6.75l1.390625 0.34375q-0.4375 1.703125 -1.578125 2.609375q-1.125 0.890625 -2.765625 0.890625q-1.6875 0 -2.75 -0.6875q-1.0625 -0.6875 -1.625 -2.0q-0.546875 -1.3125 -0.546875 -2.8125q0 -1.640625 0.625 -2.859375q0.625 -1.2187347 1.78125 -1.8437347q1.15625 -0.640625 2.546875 -0.640625q1.5625 0 2.640625 0.8125q1.078125 0.79685974 1.5 2.2499847l-1.375 0.3125q-0.359375 -1.140625 -1.0625 -1.65625q-0.6875 -0.53123474 -1.734375 -0.53123474q-1.21875 0 -2.03125 0.57810974q-0.8125 0.578125 -1.140625 1.5625q-0.328125 0.96875 -0.328125 2.015625q0 1.328125 0.390625 2.328125q0.390625 1.0 1.21875 1.5q0.828125 0.484375 1.78125 0.484375q1.171875 0 1.96875 -0.671875q0.8125 -0.671875 1.09375 -1.984375zm3.0686455 3.671875l0 -10.48436l2.078125 0l2.484375 7.4218597q0.34375 1.03125 0.5 1.546875q0.1875 -0.5625 0.5625 -1.671875l2.515625 -7.2968597l1.859375 0l0 10.48436l-1.328125 0l0 -8.78125l-3.046875 8.78125l-1.265625 0l-3.03125 -8.9375l0 8.9375l-1.328125 0zm12.927521 3.078125l-0.921875 0q2.140625 -3.421875 2.140625 -6.875q0 -1.34375 -0.3125 -2.671875q-0.25 -1.0625 -0.671875 -2.046875q-0.28125 -0.65625 -1.15625 -2.1562347l0.921875 0q1.34375 1.7968597 1.984375 3.6093597q0.546875 1.5625 0.546875 3.265625q0 1.921875 -0.734375 3.734375q-0.734375 1.796875 -1.796875 3.140625z" fill-rule="nonzero"/></g></svg>